<svg xmlns="http://www.w3.org/2000/svg" xmlns:xlink="http://www.w3.org/1999/xlink" contentStyleType="text/css" height="2397px" preserveAspectRatio="none" style="width:881px;height:2397px;background:#FFFFFF;" version="1.1" viewBox="0 0 881 2397" width="881px" zoomAndPan="magnify"><defs/><g><text fill="#000000" font-family="Arial" font-size="14" font-weight="bold" lengthAdjust="spacing" textLength="178.165" x="350.082" y="33.1318">UC-17: Reorder Past Order</text><rect fill="#FFFFFF" height="20.6982" style="stroke:#FFFFFF;stroke-width:1.0;" width="848.3291" x="15" y="49.4131"/><ellipse cx="234.3159" cy="85.1113" fill="#000000" rx="10" ry="10" style="stroke:#222222;stroke-width:1.0;"/><rect fill="#FFFFFF" height="33.7988" rx="12.5" ry="12.5" style="stroke:#000000;stroke-width:0.5;" width="124.0332" x="172.2993" y="115.1113"/><text fill="#000000" font-family="Arial" font-size="12" lengthAdjust="spacing" textLength="104.0332" x="182.2993" y="136.3672">Open Order History</text><rect fill="#FFFFFF" height="33.7988" rx="12.5" ry="12.5" style="stroke:#000000;stroke-width:0.5;" width="120.7227" x="173.9546" y="168.9102"/><text fill="#000000" font-family="Arial" font-size="12" lengthAdjust="spacing" textLength="100.7227" x="183.9546" y="190.166">Select a past order</text><rect fill="#FFFFFF" height="33.7988" rx="12.5" ry="12.5" style="stroke:#000000;stroke-width:0.5;" width="92.6855" x="187.9731" y="461.4033"/><text fill="#000000" font-family="Arial" font-size="12" lengthAdjust="spacing" textLength="72.6855" x="197.9731" y="482.6592">Click Reorder</text><rect fill="#FFFFFF" height="33.7988" rx="12.5" ry="12.5" style="stroke:#000000;stroke-width:0.5;" width="194.0703" x="137.2808" y="992.5918"/><text fill="#000000" font-family="Arial" font-size="12" lengthAdjust="spacing" textLength="174.0703" x="147.2808" y="1013.8477">Browse menu or return to history</text><ellipse cx="234.3159" cy="1057.3906" fill="none" rx="11" ry="11" style="stroke:#222222;stroke-width:1.0;"/><ellipse cx="234.3159" cy="1057.3906" fill="#222222" rx="6" ry="6" style="stroke:#222222;stroke-width:1.0;"/><rect fill="#FFFFFF" height="47.5977" rx="12.5" ry="12.5" style="stroke:#000000;stroke-width:0.5;" width="130.707" x="168.9624" y="1831.9688"/><text fill="#000000" font-family="Arial" font-size="12" lengthAdjust="spacing" textLength="110.707" x="178.9624" y="1853.2246">Review items, notes,</text><text fill="#000000" font-family="Arial" font-size="12" lengthAdjust="spacing" textLength="96.7266" x="178.9624" y="1867.0234">notices, and totals</text><rect fill="#FFFFFF" height="47.5977" rx="12.5" ry="12.5" style="stroke:#000000;stroke-width:0.5;" width="141.3828" x="21" y="1997.3652"/><text fill="#000000" font-family="Arial" font-size="12" lengthAdjust="spacing" textLength="121.3828" x="31" y="2018.6211">Remove blocked items</text><text fill="#000000" font-family="Arial" font-size="12" lengthAdjust="spacing" textLength="98.7188" x="31" y="2032.4199">or stop the reorder</text><rect fill="#FFFFFF" height="33.7988" rx="12.5" ry="12.5" style="stroke:#000000;stroke-width:0.5;" width="139.3965" x="164.6177" y="2242.5605"/><text fill="#000000" font-family="Arial" font-size="12" lengthAdjust="spacing" textLength="119.3965" x="174.6177" y="2263.8164">Accept reordered draft</text><line style="stroke:#000000;stroke-width:1.5;" x1="15" x2="15" y1="49.4131" y2="2385.957"/><rect fill="#FFFFFF" height="33.7988" rx="12.5" ry="12.5" style="stroke:#000000;stroke-width:0.5;" width="144.7168" x="562.1465" y="222.709"/><text fill="#000000" font-family="Arial" font-size="12" lengthAdjust="spacing" textLength="124.7168" x="572.1465" y="243.9648">Check reorder eligibility</text><polygon fill="#FFFFFF" points="597.2107,276.5078,671.7991,276.5078,683.7991,289.1567,671.7991,301.8057,597.2107,301.8057,585.2107,289.1567,597.2107,276.5078" style="stroke:#000000;stroke-width:0.5;"/><text fill="#000000" font-family="Arial" font-size="11" lengthAdjust="spacing" textLength="74.5884" x="597.2107" y="286.8257">Source order is</text><text fill="#000000" font-family="Arial" font-size="11" lengthAdjust="spacing" textLength="59.313" x="597.2107" y="299.4746">Completed?</text><text fill="#000000" font-family="Arial" font-size="11" lengthAdjust="spacing" textLength="23.23" x="561.9807" y="286.8257">[yes]</text><text fill="#000000" font-family="Arial" font-size="11" lengthAdjust="spacing" textLength="18.3477" x="683.7991" y="286.8257">[no]</text><rect fill="#FFFFFF" height="33.7988" rx="12.5" ry="12.5" style="stroke:#000000;stroke-width:0.5;" width="132.0605" x="470.4277" y="311.8057"/><text fill="#000000" font-family="Arial" font-size="12" lengthAdjust="spacing" textLength="112.0605" x="480.4277" y="333.0615">Show Reorder action</text><rect fill="#FFFFFF" height="33.7988" rx="12.5" ry="12.5" style="stroke:#000000;stroke-width:0.5;" width="126.7227" x="669.1904" y="311.8057"/><text fill="#000000" font-family="Arial" font-size="12" lengthAdjust="spacing" textLength="106.7227" x="679.1904" y="333.0615">Hide Reorder action</text><rect fill="#FFFFFF" height="33.7988" rx="12.5" ry="12.5" style="stroke:#000000;stroke-width:0.5;" width="220.127" x="622.4883" y="365.6045"/><text fill="#000000" font-family="Arial" font-size="12" lengthAdjust="spacing" textLength="200.127" x="632.4883" y="386.8604">Keep source order history unchanged</text><ellipse cx="732.5518" cy="430.4033" fill="none" rx="11" ry="11" style="stroke:#222222;stroke-width:1.0;"/><ellipse cx="732.5518" cy="430.4033" fill="#222222" rx="6" ry="6" style="stroke:#222222;stroke-width:1.0;"/><rect fill="#FFFFFF" height="33.7988" rx="12.5" ry="12.5" style="stroke:#000000;stroke-width:0.5;" width="141.3945" x="563.8076" y="515.2021"/><text fill="#000000" font-family="Arial" font-size="12" lengthAdjust="spacing" textLength="121.3945" x="573.8076" y="536.458">Check Reorder feature</text><polygon fill="#FFFFFF" points="571.8215,569.001,697.1882,569.001,709.1882,581.001,697.1882,593.001,571.8215,593.001,559.8215,581.001,571.8215,569.001" style="stroke:#000000;stroke-width:0.5;"/><text fill="#000000" font-family="Arial" font-size="11" lengthAdjust="spacing" textLength="125.3667" x="571.8215" y="584.9944">Reorder feature enabled?</text><text fill="#000000" font-family="Arial" font-size="11" lengthAdjust="spacing" textLength="23.23" x="536.5916" y="578.6699">[yes]</text><text fill="#000000" font-family="Arial" font-size="11" lengthAdjust="spacing" textLength="18.3477" x="709.1882" y="578.6699">[no]</text><rect fill="#FFFFFF" height="33.7988" rx="12.5" ry="12.5" style="stroke:#000000;stroke-width:0.5;" width="149.3984" x="459.2612" y="603.001"/><text fill="#000000" font-family="Arial" font-size="12" lengthAdjust="spacing" textLength="129.3984" x="469.2612" y="624.2568">Load source order items</text><rect fill="#FFFFFF" height="33.7988" rx="12.5" ry="12.5" style="stroke:#000000;stroke-width:0.5;" width="212.7793" x="628.6597" y="603.001"/><text fill="#000000" font-family="Arial" font-size="12" lengthAdjust="spacing" textLength="192.7793" x="638.6597" y="624.2568">Show Reorder unavailable message</text><rect fill="#FFFFFF" height="33.7988" rx="12.5" ry="12.5" style="stroke:#000000;stroke-width:0.5;" width="162.0547" x="654.022" y="656.7998"/><text fill="#000000" font-family="Arial" font-size="12" lengthAdjust="spacing" textLength="142.0547" x="664.022" y="678.0557">Commit no new draft order</text><ellipse cx="735.0493" cy="721.5986" fill="none" rx="11" ry="11" style="stroke:#222222;stroke-width:1.0;"/><ellipse cx="735.0493" cy="721.5986" fill="#222222" rx="6" ry="6" style="stroke:#222222;stroke-width:1.0;"/><rect fill="#FFFFFF" height="47.5977" rx="12.5" ry="12.5" style="stroke:#000000;stroke-width:0.5;" width="164.7266" x="552.1416" y="752.5986"/><text fill="#000000" font-family="Arial" font-size="12" lengthAdjust="spacing" textLength="144.7266" x="562.1416" y="773.8545">Compare source order with</text><text fill="#000000" font-family="Arial" font-size="12" lengthAdjust="spacing" textLength="100.0488" x="562.1416" y="787.6533">current menu state</text><rect fill="#FFFFFF" height="47.5977" rx="12.5" ry="12.5" style="stroke:#000000;stroke-width:0.5;" width="202.7539" x="533.1279" y="869.8186"/><text fill="#000000" font-family="Arial" font-size="12" lengthAdjust="spacing" textLength="182.7539" x="543.1279" y="891.0745">Show no-items-available message</text><text fill="#000000" font-family="Arial" font-size="12" lengthAdjust="spacing" textLength="89.373" x="543.1279" y="904.8733">with link to menu</text><rect fill="#FFFFFF" height="33.7988" rx="12.5" ry="12.5" style="stroke:#000000;stroke-width:0.5;" width="162.0547" x="553.4775" y="937.4163"/><text fill="#000000" font-family="Arial" font-size="12" lengthAdjust="spacing" textLength="142.0547" x="563.4775" y="958.6721">Commit no new draft order</text><polygon fill="#FFFFFF" points="595.688,820.1963,673.3218,820.1963,685.3218,832.8452,673.3218,845.4941,595.688,845.4941,583.688,832.8452,595.688,820.1963" style="stroke:#000000;stroke-width:0.5;"/><text fill="#000000" font-family="Arial" font-size="11" lengthAdjust="spacing" textLength="23.23" x="638.5049" y="855.812">[yes]</text><text fill="#000000" font-family="Arial" font-size="11" lengthAdjust="spacing" textLength="77.6338" x="595.688" y="830.5142">All source items</text><text fill="#000000" font-family="Arial" font-size="11" lengthAdjust="spacing" textLength="61.7729" x="595.688" y="843.1631">unavailable?</text><rect fill="#FFFFFF" height="47.5977" rx="12.5" ry="12.5" style="stroke:#000000;stroke-width:0.5;" width="142.0449" x="563.4824" y="1110.3906"/><text fill="#000000" font-family="Arial" font-size="12" lengthAdjust="spacing" textLength="122.0449" x="573.4824" y="1131.6465">Create draft order from</text><text fill="#000000" font-family="Arial" font-size="12" lengthAdjust="spacing" textLength="79.3711" x="573.4824" y="1145.4453">available items</text><rect fill="#FFFFFF" height="47.5977" rx="12.5" ry="12.5" style="stroke:#000000;stroke-width:0.5;" width="150.7168" x="559.1465" y="1177.9883"/><text fill="#000000" font-family="Arial" font-size="12" lengthAdjust="spacing" textLength="129.3984" x="569.1465" y="1199.2441">Apply current prices and</text><text fill="#000000" font-family="Arial" font-size="12" lengthAdjust="spacing" textLength="130.7168" x="569.1465" y="1213.043">carry forward valid notes</text><polygon fill="#FFFFFF" points="591.7,1245.5859,677.3098,1245.5859,689.3098,1257.5859,677.3098,1269.5859,591.7,1269.5859,579.7,1257.5859,591.7,1245.5859" style="stroke:#000000;stroke-width:0.5;"/><text fill="#000000" font-family="Arial" font-size="11" lengthAdjust="spacing" textLength="85.6099" x="591.7" y="1261.5793">Menu drift found?</text><text fill="#000000" font-family="Arial" font-size="11" lengthAdjust="spacing" textLength="23.23" x="556.47" y="1255.2549">[yes]</text><text fill="#000000" font-family="Arial" font-size="11" lengthAdjust="spacing" textLength="18.3477" x="689.3098" y="1255.2549">[no]</text><rect fill="#FFFFFF" height="47.5977" rx="12.5" ry="12.5" style="stroke:#000000;stroke-width:0.5;" width="142.0625" x="484.1094" y="1279.5859"/><text fill="#000000" font-family="Arial" font-size="12" lengthAdjust="spacing" textLength="122.0625" x="494.1094" y="1300.8418">Drop unavailable items</text><text fill="#000000" font-family="Arial" font-size="12" lengthAdjust="spacing" textLength="52.6992" x="494.1094" y="1314.6406">or options</text><rect fill="#FFFFFF" height="47.5977" rx="12.5" ry="12.5" style="stroke:#000000;stroke-width:0.5;" width="138.6992" x="485.791" y="1347.1836"/><text fill="#000000" font-family="Arial" font-size="12" lengthAdjust="spacing" textLength="118.6992" x="495.791" y="1368.4395">Prepare drift summary</text><text fill="#000000" font-family="Arial" font-size="12" lengthAdjust="spacing" textLength="92.7305" x="495.791" y="1382.2383">and inline notices</text><rect fill="#FFFFFF" height="47.5977" rx="12.5" ry="12.5" style="stroke:#000000;stroke-width:0.5;" width="135.3945" x="646.1719" y="1279.5859"/><text fill="#000000" font-family="Arial" font-size="12" lengthAdjust="spacing" textLength="115.3945" x="656.1719" y="1300.8418">Keep reordered items</text><text fill="#000000" font-family="Arial" font-size="12" lengthAdjust="spacing" textLength="102.7148" x="656.1719" y="1314.6406">without drift notices</text><polygon fill="#FFFFFF" points="634.5049,1400.7813,646.5049,1412.7813,634.5049,1424.7813,622.5049,1412.7813,634.5049,1400.7813" style="stroke:#000000;stroke-width:0.5;"/><polygon fill="#FFFFFF" points="587.7334,1444.7813,681.2764,1444.7813,693.2764,1457.4302,681.2764,1470.0791,587.7334,1470.0791,575.7334,1457.4302,587.7334,1444.7813" style="stroke:#000000;stroke-width:0.5;"/><text fill="#000000" font-family="Arial" font-size="11" lengthAdjust="spacing" textLength="93.543" x="587.7334" y="1455.0991">Any reordered item</text><text fill="#000000" font-family="Arial" font-size="11" lengthAdjust="spacing" textLength="82.8062" x="587.7334" y="1467.748">is currently 86'd?</text><text fill="#000000" font-family="Arial" font-size="11" lengthAdjust="spacing" textLength="23.23" x="552.5034" y="1455.0991">[yes]</text><text fill="#000000" font-family="Arial" font-size="11" lengthAdjust="spacing" textLength="18.3477" x="693.2764" y="1455.0991">[no]</text><rect fill="#FFFFFF" height="47.5977" rx="12.5" ry="12.5" style="stroke:#000000;stroke-width:0.5;" width="115.6836" x="491.7207" y="1480.0791"/><text fill="#000000" font-family="Arial" font-size="12" lengthAdjust="spacing" textLength="95.6836" x="501.7207" y="1501.335">Keep 86'd item as</text><text fill="#000000" font-family="Arial" font-size="12" lengthAdjust="spacing" textLength="90.0469" x="501.7207" y="1515.1338">checkout blocker</text><rect fill="#FFFFFF" height="47.5977" rx="12.5" ry="12.5" style="stroke:#000000;stroke-width:0.5;" width="184.0859" x="627.4043" y="1480.0791"/><text fill="#000000" font-family="Arial" font-size="12" lengthAdjust="spacing" textLength="164.0859" x="637.4043" y="1501.335">Keep draft cart checkout-ready</text><text fill="#000000" font-family="Arial" font-size="12" lengthAdjust="spacing" textLength="98.7012" x="637.4043" y="1515.1338">for item availability</text><polygon fill="#FFFFFF" points="634.5049,1533.6768,646.5049,1545.6768,634.5049,1557.6768,622.5049,1545.6768,634.5049,1533.6768" style="stroke:#000000;stroke-width:0.5;"/><polygon fill="#FFFFFF" points="589.5676,1577.6768,679.4421,1577.6768,691.4421,1590.3257,679.4421,1602.9746,589.5676,1602.9746,577.5676,1590.3257,589.5676,1577.6768" style="stroke:#000000;stroke-width:0.5;"/><text fill="#000000" font-family="Arial" font-size="11" lengthAdjust="spacing" textLength="89.8745" x="589.5676" y="1587.9946">Original promotion</text><text fill="#000000" font-family="Arial" font-size="11" lengthAdjust="spacing" textLength="47.6846" x="589.5676" y="1600.6436">still valid?</text><text fill="#000000" font-family="Arial" font-size="11" lengthAdjust="spacing" textLength="23.23" x="554.3376" y="1587.9946">[yes]</text><text fill="#000000" font-family="Arial" font-size="11" lengthAdjust="spacing" textLength="18.3477" x="691.4421" y="1587.9946">[no]</text><rect fill="#FFFFFF" height="47.5977" rx="12.5" ry="12.5" style="stroke:#000000;stroke-width:0.5;" width="163.4141" x="454.5884" y="1612.9746"/><text fill="#000000" font-family="Arial" font-size="12" lengthAdjust="spacing" textLength="143.4141" x="464.5884" y="1634.2305">Allow promotion evaluation</text><text fill="#000000" font-family="Arial" font-size="12" lengthAdjust="spacing" textLength="61.3711" x="464.5884" y="1648.0293">at checkout</text><rect fill="#FFFFFF" height="33.7988" rx="12.5" ry="12.5" style="stroke:#000000;stroke-width:0.5;" width="185.3984" x="640.0151" y="1612.9746"/><text fill="#000000" font-family="Arial" font-size="12" lengthAdjust="spacing" textLength="165.3984" x="650.0151" y="1634.2305">Do not carry promotion forward</text><rect fill="#FFFFFF" height="33.7988" rx="12.5" ry="12.5" style="stroke:#000000;stroke-width:0.5;" width="189.4238" x="638.0024" y="1680.5723"/><text fill="#000000" font-family="Arial" font-size="12" lengthAdjust="spacing" textLength="169.4238" x="648.0024" y="1701.8281">Attach expired-promotion notice</text><polygon fill="#FFFFFF" points="634.5049,1720.3711,646.5049,1732.3711,634.5049,1744.3711,622.5049,1732.3711,634.5049,1720.3711" style="stroke:#000000;stroke-width:0.5;"/><rect fill="#FFFFFF" height="47.5977" rx="12.5" ry="12.5" style="stroke:#000000;stroke-width:0.5;" width="154.0742" x="557.4678" y="1764.3711"/><text fill="#000000" font-family="Arial" font-size="12" lengthAdjust="spacing" textLength="114.7031" x="567.4678" y="1785.627">Display draft cart with</text><text fill="#000000" font-family="Arial" font-size="12" lengthAdjust="spacing" textLength="134.0742" x="567.4678" y="1799.4258">current totals and notices</text><polygon fill="#FFFFFF" points="563.5823,1899.5664,705.4275,1899.5664,717.4275,1911.5664,705.4275,1923.5664,563.5823,1923.5664,551.5823,1911.5664,563.5823,1899.5664" style="stroke:#000000;stroke-width:0.5;"/><text fill="#000000" font-family="Arial" font-size="11" lengthAdjust="spacing" textLength="141.8452" x="563.5823" y="1915.5598">Draft has checkout blockers?</text><text fill="#000000" font-family="Arial" font-size="11" lengthAdjust="spacing" textLength="23.23" x="528.3523" y="1909.2354">[yes]</text><text fill="#000000" font-family="Arial" font-size="11" lengthAdjust="spacing" textLength="18.3477" x="717.4275" y="1909.2354">[no]</text><rect fill="#FFFFFF" height="33.7988" rx="12.5" ry="12.5" style="stroke:#000000;stroke-width:0.5;" width="178.7539" x="402.5034" y="1943.5664"/><text fill="#000000" font-family="Arial" font-size="12" lengthAdjust="spacing" textLength="158.7539" x="412.5034" y="1964.8223">Show checkout blocker notice</text><polygon fill="#FFFFFF" points="420.0474,2064.9629,563.7134,2064.9629,575.7134,2076.9629,563.7134,2088.9629,420.0474,2088.9629,408.0474,2076.9629,420.0474,2064.9629" style="stroke:#000000;stroke-width:0.5;"/><text fill="#000000" font-family="Arial" font-size="11" lengthAdjust="spacing" textLength="143.666" x="420.0474" y="2080.9563">Customer removed blockers?</text><text fill="#000000" font-family="Arial" font-size="11" lengthAdjust="spacing" textLength="23.23" x="384.8174" y="2074.6318">[yes]</text><text fill="#000000" font-family="Arial" font-size="11" lengthAdjust="spacing" textLength="18.3477" x="575.7134" y="2074.6318">[no]</text><rect fill="#FFFFFF" height="47.5977" rx="12.5" ry="12.5" style="stroke:#000000;stroke-width:0.5;" width="113.3926" x="341.3511" y="2098.9629"/><text fill="#000000" font-family="Arial" font-size="12" lengthAdjust="spacing" textLength="89.3789" x="351.3511" y="2120.2188">Update draft cart</text><text fill="#000000" font-family="Arial" font-size="12" lengthAdjust="spacing" textLength="93.3926" x="351.3511" y="2134.0176">totals and notices</text><rect fill="#FFFFFF" height="33.7988" rx="12.5" ry="12.5" style="stroke:#000000;stroke-width:0.5;" width="161.4336" x="504.9966" y="2098.9629"/><text fill="#000000" font-family="Arial" font-size="12" lengthAdjust="spacing" textLength="141.4336" x="514.9966" y="2120.2188">Keep draft cart unchanged</text><ellipse cx="585.7134" cy="2177.5605" fill="none" rx="11" ry="11" style="stroke:#222222;stroke-width:1.0;"/><ellipse cx="585.7134" cy="2177.5605" fill="#222222" rx="6" ry="6" style="stroke:#222222;stroke-width:1.0;"/><rect fill="#FFFFFF" height="33.7988" rx="12.5" ry="12.5" style="stroke:#000000;stroke-width:0.5;" width="161.3984" x="696.4302" y="1943.5664"/><text fill="#000000" font-family="Arial" font-size="12" lengthAdjust="spacing" textLength="141.3984" x="706.4302" y="1964.8223">Allow customer to proceed</text><polygon fill="#FFFFFF" points="634.5049,2198.5605,646.5049,2210.5605,634.5049,2222.5605,622.5049,2210.5605,634.5049,2198.5605" style="stroke:#000000;stroke-width:0.5;"/><rect fill="#FFFFFF" height="47.5977" rx="12.5" ry="12.5" style="stroke:#000000;stroke-width:0.5;" width="169.4082" x="549.8008" y="2296.3594"/><text fill="#000000" font-family="Arial" font-size="12" lengthAdjust="spacing" textLength="149.4082" x="559.8008" y="2317.6152">Route customer to checkout</text><text fill="#000000" font-family="Arial" font-size="12" lengthAdjust="spacing" textLength="42.668" x="559.8008" y="2331.4141">(UC-26)</text><ellipse cx="634.5049" cy="2374.957" fill="none" rx="11" ry="11" style="stroke:#222222;stroke-width:1.0;"/><ellipse cx="634.5049" cy="2374.957" fill="#222222" rx="6" ry="6" style="stroke:#222222;stroke-width:1.0;"/><line style="stroke:#000000;stroke-width:1.5;" x1="335.3511" x2="335.3511" y1="49.4131" y2="2385.957"/><line style="stroke:#000000;stroke-width:1.5;" x1="861.8286" x2="861.8286" y1="49.4131" y2="2385.957"/><line style="stroke:#000000;stroke-width:1.0;" x1="234.3159" x2="234.3159" y1="95.1113" y2="115.1113"/><polygon fill="#000000" points="230.3159,105.1113,234.3159,115.1113,238.3159,105.1113,234.3159,109.1113" style="stroke:#000000;stroke-width:1.0;"/><line style="stroke:#000000;stroke-width:1.0;" x1="234.3159" x2="234.3159" y1="148.9102" y2="168.9102"/><polygon fill="#000000" points="230.3159,158.9102,234.3159,168.9102,238.3159,158.9102,234.3159,162.9102" style="stroke:#000000;stroke-width:1.0;"/><line style="stroke:#000000;stroke-width:1.0;" x1="234.3159" x2="234.3159" y1="1026.3906" y2="1046.3906"/><polygon fill="#000000" points="230.3159,1036.3906,234.3159,1046.3906,238.3159,1036.3906,234.3159,1040.3906" style="stroke:#000000;stroke-width:1.0;"/><line style="stroke:#000000;stroke-width:1.0;" x1="732.5518" x2="732.5518" y1="345.6045" y2="365.6045"/><polygon fill="#000000" points="728.5518,355.6045,732.5518,365.6045,736.5518,355.6045,732.5518,359.6045" style="stroke:#000000;stroke-width:1.0;"/><line style="stroke:#000000;stroke-width:1.0;" x1="732.5518" x2="732.5518" y1="399.4033" y2="419.4033"/><polygon fill="#000000" points="728.5518,409.4033,732.5518,419.4033,736.5518,409.4033,732.5518,413.4033" style="stroke:#000000;stroke-width:1.0;"/><line style="stroke:#000000;stroke-width:1.0;" x1="585.2107" x2="536.458" y1="289.1567" y2="289.1567"/><line style="stroke:#000000;stroke-width:1.0;" x1="536.458" x2="536.458" y1="289.1567" y2="311.8057"/><polygon fill="#000000" points="532.458,301.8057,536.458,311.8057,540.458,301.8057,536.458,305.8057" style="stroke:#000000;stroke-width:1.0;"/><line style="stroke:#000000;stroke-width:1.0;" x1="683.7991" x2="732.5518" y1="289.1567" y2="289.1567"/><line style="stroke:#000000;stroke-width:1.0;" x1="732.5518" x2="732.5518" y1="289.1567" y2="311.8057"/><polygon fill="#000000" points="728.5518,301.8057,732.5518,311.8057,736.5518,301.8057,732.5518,305.8057" style="stroke:#000000;stroke-width:1.0;"/><line style="stroke:#000000;stroke-width:1.0;" x1="536.458" x2="536.458" y1="345.6045" y2="446.4033"/><line style="stroke:#000000;stroke-width:1.0;" x1="536.458" x2="234.3159" y1="446.4033" y2="446.4033"/><line style="stroke:#000000;stroke-width:1.0;" x1="234.3159" x2="234.3159" y1="446.4033" y2="461.4033"/><polygon fill="#000000" points="230.3159,451.4033,234.3159,461.4033,238.3159,451.4033,234.3159,455.4033" style="stroke:#000000;stroke-width:1.0;"/><line style="stroke:#000000;stroke-width:1.0;" x1="634.5049" x2="634.5049" y1="256.5078" y2="276.5078"/><polygon fill="#000000" points="630.5049,266.5078,634.5049,276.5078,638.5049,266.5078,634.5049,270.5078" style="stroke:#000000;stroke-width:1.0;"/><line style="stroke:#000000;stroke-width:1.0;" x1="735.0493" x2="735.0493" y1="636.7998" y2="656.7998"/><polygon fill="#000000" points="731.0493,646.7998,735.0493,656.7998,739.0493,646.7998,735.0493,650.7998" style="stroke:#000000;stroke-width:1.0;"/><line style="stroke:#000000;stroke-width:1.0;" x1="735.0493" x2="735.0493" y1="690.5986" y2="710.5986"/><polygon fill="#000000" points="731.0493,700.5986,735.0493,710.5986,739.0493,700.5986,735.0493,704.5986" style="stroke:#000000;stroke-width:1.0;"/><line style="stroke:#000000;stroke-width:1.0;" x1="559.8215" x2="533.9604" y1="581.001" y2="581.001"/><line style="stroke:#000000;stroke-width:1.0;" x1="533.9604" x2="533.9604" y1="581.001" y2="603.001"/><polygon fill="#000000" points="529.9604,593.001,533.9604,603.001,537.9604,593.001,533.9604,597.001" style="stroke:#000000;stroke-width:1.0;"/><line style="stroke:#000000;stroke-width:1.0;" x1="709.1882" x2="735.0493" y1="581.001" y2="581.001"/><line style="stroke:#000000;stroke-width:1.0;" x1="735.0493" x2="735.0493" y1="581.001" y2="603.001"/><polygon fill="#000000" points="731.0493,593.001,735.0493,603.001,739.0493,593.001,735.0493,597.001" style="stroke:#000000;stroke-width:1.0;"/><line style="stroke:#000000;stroke-width:1.0;" x1="533.9604" x2="533.9604" y1="636.7998" y2="737.5986"/><line style="stroke:#000000;stroke-width:1.0;" x1="533.9604" x2="634.5049" y1="737.5986" y2="737.5986"/><line style="stroke:#000000;stroke-width:1.0;" x1="634.5049" x2="634.5049" y1="737.5986" y2="752.5986"/><polygon fill="#000000" points="630.5049,742.5986,634.5049,752.5986,638.5049,742.5986,634.5049,746.5986" style="stroke:#000000;stroke-width:1.0;"/><line style="stroke:#000000;stroke-width:1.0;" x1="634.5049" x2="634.5049" y1="549.001" y2="569.001"/><polygon fill="#000000" points="630.5049,559.001,634.5049,569.001,638.5049,559.001,634.5049,563.001" style="stroke:#000000;stroke-width:1.0;"/><line style="stroke:#000000;stroke-width:1.0;" x1="634.5049" x2="634.5049" y1="917.4163" y2="937.4163"/><polygon fill="#000000" points="630.5049,927.4163,634.5049,937.4163,638.5049,927.4163,634.5049,931.4163" style="stroke:#000000;stroke-width:1.0;"/><line style="stroke:#000000;stroke-width:1.0;" x1="634.5049" x2="634.5049" y1="845.4941" y2="869.8186"/><polygon fill="#000000" points="630.5049,859.8186,634.5049,869.8186,638.5049,859.8186,634.5049,863.8186" style="stroke:#000000;stroke-width:1.0;"/><line style="stroke:#000000;stroke-width:1.0;" x1="685.3218" x2="745.8818" y1="832.8452" y2="832.8452"/><polygon fill="#000000" points="741.8818,962.5918,745.8818,972.5918,749.8818,962.5918,745.8818,966.5918" style="stroke:#000000;stroke-width:1.0;"/><line style="stroke:#000000;stroke-width:1.0;" x1="745.8818" x2="745.8818" y1="832.8452" y2="1090.3906"/><line style="stroke:#000000;stroke-width:1.0;" x1="745.8818" x2="634.5049" y1="1090.3906" y2="1090.3906"/><line style="stroke:#000000;stroke-width:1.0;" x1="634.5049" x2="634.5049" y1="1090.3906" y2="1110.3906"/><polygon fill="#000000" points="630.5049,1100.3906,634.5049,1110.3906,638.5049,1100.3906,634.5049,1104.3906" style="stroke:#000000;stroke-width:1.0;"/><line style="stroke:#000000;stroke-width:1.0;" x1="634.5049" x2="634.5049" y1="800.1963" y2="820.1963"/><polygon fill="#000000" points="630.5049,810.1963,634.5049,820.1963,638.5049,810.1963,634.5049,814.1963" style="stroke:#000000;stroke-width:1.0;"/><line style="stroke:#000000;stroke-width:1.0;" x1="634.5049" x2="634.5049" y1="1157.9883" y2="1177.9883"/><polygon fill="#000000" points="630.5049,1167.9883,634.5049,1177.9883,638.5049,1167.9883,634.5049,1171.9883" style="stroke:#000000;stroke-width:1.0;"/><line style="stroke:#000000;stroke-width:1.0;" x1="555.1406" x2="555.1406" y1="1327.1836" y2="1347.1836"/><polygon fill="#000000" points="551.1406,1337.1836,555.1406,1347.1836,559.1406,1337.1836,555.1406,1341.1836" style="stroke:#000000;stroke-width:1.0;"/><line style="stroke:#000000;stroke-width:1.0;" x1="579.7" x2="555.1406" y1="1257.5859" y2="1257.5859"/><line style="stroke:#000000;stroke-width:1.0;" x1="555.1406" x2="555.1406" y1="1257.5859" y2="1279.5859"/><polygon fill="#000000" points="551.1406,1269.5859,555.1406,1279.5859,559.1406,1269.5859,555.1406,1273.5859" style="stroke:#000000;stroke-width:1.0;"/><line style="stroke:#000000;stroke-width:1.0;" x1="689.3098" x2="713.8691" y1="1257.5859" y2="1257.5859"/><line style="stroke:#000000;stroke-width:1.0;" x1="713.8691" x2="713.8691" y1="1257.5859" y2="1279.5859"/><polygon fill="#000000" points="709.8691,1269.5859,713.8691,1279.5859,717.8691,1269.5859,713.8691,1273.5859" style="stroke:#000000;stroke-width:1.0;"/><line style="stroke:#000000;stroke-width:1.0;" x1="555.1406" x2="555.1406" y1="1394.7813" y2="1412.7813"/><line style="stroke:#000000;stroke-width:1.0;" x1="555.1406" x2="622.5049" y1="1412.7813" y2="1412.7813"/><polygon fill="#000000" points="612.5049,1408.7813,622.5049,1412.7813,612.5049,1416.7813,616.5049,1412.7813" style="stroke:#000000;stroke-width:1.0;"/><line style="stroke:#000000;stroke-width:1.0;" x1="713.8691" x2="713.8691" y1="1327.1836" y2="1412.7813"/><line style="stroke:#000000;stroke-width:1.0;" x1="713.8691" x2="646.5049" y1="1412.7813" y2="1412.7813"/><polygon fill="#000000" points="656.5049,1408.7813,646.5049,1412.7813,656.5049,1416.7813,652.5049,1412.7813" style="stroke:#000000;stroke-width:1.0;"/><line style="stroke:#000000;stroke-width:1.0;" x1="634.5049" x2="634.5049" y1="1225.5859" y2="1245.5859"/><polygon fill="#000000" points="630.5049,1235.5859,634.5049,1245.5859,638.5049,1235.5859,634.5049,1239.5859" style="stroke:#000000;stroke-width:1.0;"/><line style="stroke:#000000;stroke-width:1.0;" x1="575.7334" x2="549.5625" y1="1457.4302" y2="1457.4302"/><line style="stroke:#000000;stroke-width:1.0;" x1="549.5625" x2="549.5625" y1="1457.4302" y2="1480.0791"/><polygon fill="#000000" points="545.5625,1470.0791,549.5625,1480.0791,553.5625,1470.0791,549.5625,1474.0791" style="stroke:#000000;stroke-width:1.0;"/><line style="stroke:#000000;stroke-width:1.0;" x1="693.2764" x2="719.4473" y1="1457.4302" y2="1457.4302"/><line style="stroke:#000000;stroke-width:1.0;" x1="719.4473" x2="719.4473" y1="1457.4302" y2="1480.0791"/><polygon fill="#000000" points="715.4473,1470.0791,719.4473,1480.0791,723.4473,1470.0791,719.4473,1474.0791" style="stroke:#000000;stroke-width:1.0;"/><line style="stroke:#000000;stroke-width:1.0;" x1="549.5625" x2="549.5625" y1="1527.6768" y2="1545.6768"/><line style="stroke:#000000;stroke-width:1.0;" x1="549.5625" x2="622.5049" y1="1545.6768" y2="1545.6768"/><polygon fill="#000000" points="612.5049,1541.6768,622.5049,1545.6768,612.5049,1549.6768,616.5049,1545.6768" style="stroke:#000000;stroke-width:1.0;"/><line style="stroke:#000000;stroke-width:1.0;" x1="719.4473" x2="719.4473" y1="1527.6768" y2="1545.6768"/><line style="stroke:#000000;stroke-width:1.0;" x1="719.4473" x2="646.5049" y1="1545.6768" y2="1545.6768"/><polygon fill="#000000" points="656.5049,1541.6768,646.5049,1545.6768,656.5049,1549.6768,652.5049,1545.6768" style="stroke:#000000;stroke-width:1.0;"/><line style="stroke:#000000;stroke-width:1.0;" x1="634.5049" x2="634.5049" y1="1424.7813" y2="1444.7813"/><polygon fill="#000000" points="630.5049,1434.7813,634.5049,1444.7813,638.5049,1434.7813,634.5049,1438.7813" style="stroke:#000000;stroke-width:1.0;"/><line style="stroke:#000000;stroke-width:1.0;" x1="732.7144" x2="732.7144" y1="1646.7734" y2="1680.5723"/><polygon fill="#000000" points="728.7144,1670.5723,732.7144,1680.5723,736.7144,1670.5723,732.7144,1674.5723" style="stroke:#000000;stroke-width:1.0;"/><line style="stroke:#000000;stroke-width:1.0;" x1="577.5676" x2="536.2954" y1="1590.3257" y2="1590.3257"/><line style="stroke:#000000;stroke-width:1.0;" x1="536.2954" x2="536.2954" y1="1590.3257" y2="1612.9746"/><polygon fill="#000000" points="532.2954,1602.9746,536.2954,1612.9746,540.2954,1602.9746,536.2954,1606.9746" style="stroke:#000000;stroke-width:1.0;"/><line style="stroke:#000000;stroke-width:1.0;" x1="691.4421" x2="732.7144" y1="1590.3257" y2="1590.3257"/><line style="stroke:#000000;stroke-width:1.0;" x1="732.7144" x2="732.7144" y1="1590.3257" y2="1612.9746"/><polygon fill="#000000" points="728.7144,1602.9746,732.7144,1612.9746,736.7144,1602.9746,732.7144,1606.9746" style="stroke:#000000;stroke-width:1.0;"/><line style="stroke:#000000;stroke-width:1.0;" x1="536.2954" x2="536.2954" y1="1660.5723" y2="1732.3711"/><line style="stroke:#000000;stroke-width:1.0;" x1="536.2954" x2="622.5049" y1="1732.3711" y2="1732.3711"/><polygon fill="#000000" points="612.5049,1728.3711,622.5049,1732.3711,612.5049,1736.3711,616.5049,1732.3711" style="stroke:#000000;stroke-width:1.0;"/><line style="stroke:#000000;stroke-width:1.0;" x1="732.7144" x2="732.7144" y1="1714.3711" y2="1732.3711"/><line style="stroke:#000000;stroke-width:1.0;" x1="732.7144" x2="646.5049" y1="1732.3711" y2="1732.3711"/><polygon fill="#000000" points="656.5049,1728.3711,646.5049,1732.3711,656.5049,1736.3711,652.5049,1732.3711" style="stroke:#000000;stroke-width:1.0;"/><line style="stroke:#000000;stroke-width:1.0;" x1="634.5049" x2="634.5049" y1="1557.6768" y2="1577.6768"/><polygon fill="#000000" points="630.5049,1567.6768,634.5049,1577.6768,638.5049,1567.6768,634.5049,1571.6768" style="stroke:#000000;stroke-width:1.0;"/><line style="stroke:#000000;stroke-width:1.0;" x1="634.5049" x2="634.5049" y1="1744.3711" y2="1764.3711"/><polygon fill="#000000" points="630.5049,1754.3711,634.5049,1764.3711,638.5049,1754.3711,634.5049,1758.3711" style="stroke:#000000;stroke-width:1.0;"/><line style="stroke:#000000;stroke-width:1.0;" x1="585.7134" x2="585.7134" y1="2132.7617" y2="2166.5605"/><polygon fill="#000000" points="581.7134,2156.5605,585.7134,2166.5605,589.7134,2156.5605,585.7134,2160.5605" style="stroke:#000000;stroke-width:1.0;"/><line style="stroke:#000000;stroke-width:1.0;" x1="408.0474" x2="398.0474" y1="2076.9629" y2="2076.9629"/><line style="stroke:#000000;stroke-width:1.0;" x1="398.0474" x2="398.0474" y1="2076.9629" y2="2098.9629"/><polygon fill="#000000" points="394.0474,2088.9629,398.0474,2098.9629,402.0474,2088.9629,398.0474,2092.9629" style="stroke:#000000;stroke-width:1.0;"/><line style="stroke:#000000;stroke-width:1.0;" x1="575.7134" x2="585.7134" y1="2076.9629" y2="2076.9629"/><line style="stroke:#000000;stroke-width:1.0;" x1="585.7134" x2="585.7134" y1="2076.9629" y2="2098.9629"/><polygon fill="#000000" points="581.7134,2088.9629,585.7134,2098.9629,589.7134,2088.9629,585.7134,2092.9629" style="stroke:#000000;stroke-width:1.0;"/><line style="stroke:#000000;stroke-width:1.0;" x1="398.0474" x2="398.0474" y1="2146.5605" y2="2210.5605"/><line style="stroke:#000000;stroke-width:1.0;" x1="398.0474" x2="622.5049" y1="2210.5605" y2="2210.5605"/><polygon fill="#000000" points="612.5049,2206.5605,622.5049,2210.5605,612.5049,2214.5605,616.5049,2210.5605" style="stroke:#000000;stroke-width:1.0;"/><line style="stroke:#000000;stroke-width:1.0;" x1="551.5823" x2="491.8804" y1="1911.5664" y2="1911.5664"/><line style="stroke:#000000;stroke-width:1.0;" x1="491.8804" x2="491.8804" y1="1911.5664" y2="1943.5664"/><polygon fill="#000000" points="487.8804,1933.5664,491.8804,1943.5664,495.8804,1933.5664,491.8804,1937.5664" style="stroke:#000000;stroke-width:1.0;"/><line style="stroke:#000000;stroke-width:1.0;" x1="717.4275" x2="777.1294" y1="1911.5664" y2="1911.5664"/><line style="stroke:#000000;stroke-width:1.0;" x1="777.1294" x2="777.1294" y1="1911.5664" y2="1943.5664"/><polygon fill="#000000" points="773.1294,1933.5664,777.1294,1943.5664,781.1294,1933.5664,777.1294,1937.5664" style="stroke:#000000;stroke-width:1.0;"/><line style="stroke:#000000;stroke-width:1.0;" x1="777.1294" x2="777.1294" y1="1977.3652" y2="2210.5605"/><line style="stroke:#000000;stroke-width:1.0;" x1="777.1294" x2="646.5049" y1="2210.5605" y2="2210.5605"/><polygon fill="#000000" points="656.5049,2206.5605,646.5049,2210.5605,656.5049,2214.5605,652.5049,2210.5605" style="stroke:#000000;stroke-width:1.0;"/><line style="stroke:#000000;stroke-width:1.0;" x1="634.5049" x2="634.5049" y1="2343.957" y2="2363.957"/><polygon fill="#000000" points="630.5049,2353.957,634.5049,2363.957,638.5049,2353.957,634.5049,2357.957" style="stroke:#000000;stroke-width:1.0;"/><line style="stroke:#000000;stroke-width:1.0;" x1="234.3159" x2="234.3159" y1="202.709" y2="207.709"/><line style="stroke:#000000;stroke-width:1.0;" x1="234.3159" x2="634.5049" y1="207.709" y2="207.709"/><line style="stroke:#000000;stroke-width:1.0;" x1="634.5049" x2="634.5049" y1="207.709" y2="222.709"/><polygon fill="#000000" points="630.5049,212.709,634.5049,222.709,638.5049,212.709,634.5049,216.709" style="stroke:#000000;stroke-width:1.0;"/><line style="stroke:#000000;stroke-width:1.0;" x1="234.3159" x2="234.3159" y1="495.2021" y2="500.2021"/><line style="stroke:#000000;stroke-width:1.0;" x1="234.3159" x2="634.5049" y1="500.2021" y2="500.2021"/><line style="stroke:#000000;stroke-width:1.0;" x1="634.5049" x2="634.5049" y1="500.2021" y2="515.2021"/><polygon fill="#000000" points="630.5049,505.2021,634.5049,515.2021,638.5049,505.2021,634.5049,509.2021" style="stroke:#000000;stroke-width:1.0;"/><line style="stroke:#000000;stroke-width:1.0;" x1="634.5049" x2="634.5049" y1="971.2151" y2="977.5918"/><line style="stroke:#000000;stroke-width:1.0;" x1="634.5049" x2="234.3159" y1="977.5918" y2="977.5918"/><line style="stroke:#000000;stroke-width:1.0;" x1="234.3159" x2="234.3159" y1="977.5918" y2="992.5918"/><polygon fill="#000000" points="230.3159,982.5918,234.3159,992.5918,238.3159,982.5918,234.3159,986.5918" style="stroke:#000000;stroke-width:1.0;"/><line style="stroke:#000000;stroke-width:1.0;" x1="634.5049" x2="634.5049" y1="1811.9688" y2="1816.9688"/><line style="stroke:#000000;stroke-width:1.0;" x1="634.5049" x2="234.3159" y1="1816.9688" y2="1816.9688"/><line style="stroke:#000000;stroke-width:1.0;" x1="234.3159" x2="234.3159" y1="1816.9688" y2="1831.9688"/><polygon fill="#000000" points="230.3159,1821.9688,234.3159,1831.9688,238.3159,1821.9688,234.3159,1825.9688" style="stroke:#000000;stroke-width:1.0;"/><line style="stroke:#000000;stroke-width:1.0;" x1="491.8804" x2="491.8804" y1="1977.3652" y2="1982.3652"/><line style="stroke:#000000;stroke-width:1.0;" x1="491.8804" x2="91.6914" y1="1982.3652" y2="1982.3652"/><line style="stroke:#000000;stroke-width:1.0;" x1="91.6914" x2="91.6914" y1="1982.3652" y2="1997.3652"/><polygon fill="#000000" points="87.6914,1987.3652,91.6914,1997.3652,95.6914,1987.3652,91.6914,1991.3652" style="stroke:#000000;stroke-width:1.0;"/><line style="stroke:#000000;stroke-width:1.0;" x1="91.6914" x2="91.6914" y1="2044.9629" y2="2049.9629"/><line style="stroke:#000000;stroke-width:1.0;" x1="91.6914" x2="491.8804" y1="2049.9629" y2="2049.9629"/><line style="stroke:#000000;stroke-width:1.0;" x1="491.8804" x2="491.8804" y1="2049.9629" y2="2064.9629"/><polygon fill="#000000" points="487.8804,2054.9629,491.8804,2064.9629,495.8804,2054.9629,491.8804,2058.9629" style="stroke:#000000;stroke-width:1.0;"/><line style="stroke:#000000;stroke-width:1.0;" x1="234.3159" x2="234.3159" y1="1879.5664" y2="1884.5664"/><line style="stroke:#000000;stroke-width:1.0;" x1="234.3159" x2="634.5049" y1="1884.5664" y2="1884.5664"/><line style="stroke:#000000;stroke-width:1.0;" x1="634.5049" x2="634.5049" y1="1884.5664" y2="1899.5664"/><polygon fill="#000000" points="630.5049,1889.5664,634.5049,1899.5664,638.5049,1889.5664,634.5049,1893.5664" style="stroke:#000000;stroke-width:1.0;"/><line style="stroke:#000000;stroke-width:1.0;" x1="634.5049" x2="634.5049" y1="2222.5605" y2="2227.5605"/><line style="stroke:#000000;stroke-width:1.0;" x1="634.5049" x2="234.3159" y1="2227.5605" y2="2227.5605"/><line style="stroke:#000000;stroke-width:1.0;" x1="234.3159" x2="234.3159" y1="2227.5605" y2="2242.5605"/><polygon fill="#000000" points="230.3159,2232.5605,234.3159,2242.5605,238.3159,2232.5605,234.3159,2236.5605" style="stroke:#000000;stroke-width:1.0;"/><line style="stroke:#000000;stroke-width:1.0;" x1="234.3159" x2="234.3159" y1="2276.3594" y2="2281.3594"/><line style="stroke:#000000;stroke-width:1.0;" x1="234.3159" x2="634.5049" y1="2281.3594" y2="2281.3594"/><line style="stroke:#000000;stroke-width:1.0;" x1="634.5049" x2="634.5049" y1="2281.3594" y2="2296.3594"/><polygon fill="#000000" points="630.5049,2286.3594,634.5049,2296.3594,638.5049,2286.3594,634.5049,2290.3594" style="stroke:#000000;stroke-width:1.0;"/><text fill="#000000" font-family="Arial" font-size="18" lengthAdjust="spacing" textLength="170.0684" x="90.1414" y="66.2969">Registered Customer</text><text fill="#000000" font-family="Arial" font-size="18" lengthAdjust="spacing" textLength="60.0117" x="568.584" y="66.2969">System</text><!--SRC=[ZLPHR-Cs37xNh-3RjK1pm0RiDYGOXZJPK61tQv6isCEm1zMYOwsoP4XoSm7wuu-KxSHEdEJU3EiZ-P4VIIdgQ12U5vCVVfx22frNwE59XWYF_2d41tWoqiRdBvz1Pb6_wRW3fUN6on8iRY7iR9HVFn9kZIK1THOWTyQuxHu_QV6JJQqLVYmLevyy1YJJg9rj3GB40g7oxd_C8dFwyITuCJ9xdKYh9jj2HuImrINnGV2rGVR3n2BwKbjfqiyf_Pn0YD97i4uX_0h16QqQLv1fdnbCc3pPj9Z6lQl95tXjDx3LiMXjjBNqjxKKuLNRIdB-fRCkAxmh4N9f0lQEGY6LsxAVunE5kQnD_CFP-9SaoxdNqlJExodYnhlQgeKppiC_JAntFlVURPkZUsPtVFI0KeqVBm-Hnm6TODSex76fNIxxkXvjgIKLKdrlq0x-7R5Rw7KAQ-wMov3VxPcgMXVn6lU4kK2Opy-px7h-aeSEypVFypKw0_1nNF6-meqED0UeO567IEtjtqKQA35zhD0sgm4U2EJyRYQcQpGyiH8gNXo9vOpyh7VafNmNqqM1D4M-tIvez4Q_Q4D5dGcTmytQrJx3nWvq40jNLWOZgjzkUIDOkFbtX-6_Mm4mNHUqMBeznTeuEnD84qOWwnhC0ssP4mpz_nEnebtG2rOqAK1jiqBQ3Ih6qQzAe5KwFrUBwS9eIgWDCP9g5pn76MkFJPf7Fm6jV36ZINvsKWs9advbE4bqK8pQoZUf3Vk44aEG6qnPKpLBpQimhMlbPRwNQ9Wh8wa_S1YPrw38QkzfMPDVM_DgZUGwvJGtfeCdYgB7ufnwraqITdB2bo1fwnfjNo6w5EvQ3dGyBXAPtTCw3DYmflxsI7MtxBZeMlT8xOECdaJ2VYJ8QS-B0-LMaUcygimEkW9LNcSOWEuhaKbFdPKxlvLUmPlaAuZdFBIb-yAibDSK8ETH7IdNqhjge6jJO-1aNCLz7L9vw2vDmZNUGbsMqk_eW6ZGtKNLH8xCp4vQACr4EvbKlYu0oq1tOUlnODpKAIblTqTsGeUk3bIHNpvz64ifnUEpP0AIWsKyCnpjnRZibKKT8zbeaV6rtXbCI2N5YLALMtzDgThbqgFxw6dfy7LFpulISUbeesdgtYJC2D5vUiBiqO04hDDhXGjxu712TkcuNj38Vx1l6o7fDOzHPWNWrqfJyIO7K5FeFV7fKeVAo5q_zy4yHXVfTP5qtcjqRcUjy4tJy2I5xvfEl1EjrLroqNZhhpEkt3B5BcGuqIcSc_1Zu3wlIyEwmjAzOMkY-gtE8vgUXXvxGzzn162MdIl2i1jrWIF5UgxKORovhEdtM3K1XlAETEFWycWN2fab2OzwescghEDAcuYqpv1DBryuyop3AlO6BiKVt3mhVhiEV7SoY1j-It-wdGdczWq0]--></g></svg>