<svg xmlns="http://www.w3.org/2000/svg" xmlns:xlink="http://www.w3.org/1999/xlink" contentStyleType="text/css" data-diagram-type="CLASS" height="1165px" preserveAspectRatio="none" style="width:969px;height:1165px;background:#FFFFFF;" version="1.1" viewBox="0 0 969 1165" width="969px" zoomAndPan="magnify"><?plantuml 1.2026.3beta6?><defs/><g><g class="title" data-source-line="13"><text fill="#000000" font-family="'Segoe UI'" font-size="22" font-weight="700" lengthAdjust="spacing" textLength="618.2129" x="174.8555" y="39.4209">Wonton POS - Final BRD v3 ERD Overview (26 UC)</text></g><!--cluster People & Access--><g class="cluster" data-qualified-name="People . Access" data-source-line="48" id="ent0002"><rect fill="#FFFFFF" height="171" rx="3" ry="3" style="stroke:#000000;stroke-width:1;" width="274.02" x="89.3669" y="89.6094"/><text fill="#000000" font-family="'Segoe UI'" font-size="12" font-weight="700" lengthAdjust="spacing" textLength="110.7773" x="170.9882" y="106.748">People &amp; Access</text></g><!--cluster Menu & Catalog--><g class="cluster" data-qualified-name="Menu . Catalog" data-source-line="54" id="ent0006"><rect fill="#FFFFFF" height="171" rx="3" ry="3" style="stroke:#000000;stroke-width:1;" width="309.71" x="595.6269" y="284.6094"/><text fill="#000000" font-family="'Segoe UI'" font-size="12" font-weight="700" lengthAdjust="spacing" textLength="107.6719" x="696.646" y="301.748">Menu &amp; Catalog</text></g><!--cluster Ordering Core--><g class="cluster" data-qualified-name="Ordering Core" data-source-line="60" id="ent0010"><rect fill="#FFFFFF" height="96" rx="3" ry="3" style="stroke:#000000;stroke-width:1;" width="287.01" x="264.6569" y="284.6094"/><text fill="#000000" font-family="'Segoe UI'" font-size="12" font-weight="700" lengthAdjust="spacing" textLength="95.2969" x="360.5135" y="301.748">Ordering Core</text></g><!--cluster Service Context--><g class="cluster" data-qualified-name="Service Context" data-source-line="65" id="ent0013"><rect fill="#FFFFFF" height="171" rx="3" ry="3" style="stroke:#000000;stroke-width:1;" width="178.07" x="62.5869" y="284.6094"/><text fill="#000000" font-family="'Segoe UI'" font-size="12" font-weight="700" lengthAdjust="spacing" textLength="107.0098" x="98.117" y="301.748">Service Context</text></g><!--cluster Promotion & Payment--><g class="cluster" data-qualified-name="Promotion . Payment" data-source-line="70" id="ent0016"><rect fill="#FFFFFF" height="171" rx="3" ry="3" style="stroke:#000000;stroke-width:1;" width="342.59" x="387.3869" y="66.6094"/><text fill="#000000" font-family="'Segoe UI'" font-size="12" font-weight="700" lengthAdjust="spacing" textLength="148.7988" x="484.2825" y="83.748">Promotion &amp; Payment</text></g><!--cluster Experience & Operations--><g class="cluster" data-qualified-name="Experience . Operations" data-source-line="76" id="ent0020"><rect fill="#FFFFFF" height="396" rx="3" ry="3" style="stroke:#000000;stroke-width:1;" width="339.79" x="397.9569" y="479.6094"/><text fill="#000000" font-family="'Segoe UI'" font-size="12" font-weight="700" lengthAdjust="spacing" textLength="168.1758" x="483.764" y="496.748">Experience &amp; Operations</text></g><!--class customer--><g class="entity" data-qualified-name="People . Access.customer" data-source-line="49" id="ent0003"><rect fill="#FFFFFF" height="39.9688" rx="3" ry="3" style="stroke:#333333;stroke-width:1;" width="92.5078" x="105.3669" y="204.6294"/><ellipse cx="118.3669" cy="220.6137" fill="#FFFFFF" rx="9" ry="9" style="stroke:#000000;stroke-width:1;"/><path d="M120.8044,225.1137 L115.3513,225.1137 L115.3513,216.3637 L120.8044,216.3637 L120.8044,217.895 L117.0857,217.895 L117.0857,219.77 L120.445,219.77 L120.445,221.3012 L117.0857,221.3012 L117.0857,223.5825 L120.8044,223.5825 L120.8044,225.1137 Z " fill="#000000"/><text fill="#000000" font-family="'Segoe UI'" font-size="12" lengthAdjust="spacing" textLength="56.5078" x="134.3669" y="224.768">customer</text><line style="stroke:#333333;stroke-width:1;" x1="106.3669" x2="196.8747" y1="236.5981" y2="236.5981"/></g><!--class staff--><g class="entity" data-qualified-name="People . Access.staff" data-source-line="50" id="ent0004"><rect fill="#FFFFFF" height="39.9688" rx="3" ry="3" style="stroke:#333333;stroke-width:1;" width="62.7598" x="120.2469" y="129.6294"/><ellipse cx="133.2469" cy="145.6137" fill="#FFFFFF" rx="9" ry="9" style="stroke:#000000;stroke-width:1;"/><path d="M135.6844,150.1137 L130.2313,150.1137 L130.2313,141.3637 L135.6844,141.3637 L135.6844,142.895 L131.9657,142.895 L131.9657,144.77 L135.325,144.77 L135.325,146.3012 L131.9657,146.3012 L131.9657,148.5825 L135.6844,148.5825 L135.6844,150.1137 Z " fill="#000000"/><text fill="#000000" font-family="'Segoe UI'" font-size="12" lengthAdjust="spacing" textLength="26.7598" x="149.2469" y="149.768">staff</text><line style="stroke:#333333;stroke-width:1;" x1="121.2469" x2="182.0067" y1="161.5981" y2="161.5981"/></g><!--class role--><g class="entity" data-qualified-name="People . Access.role" data-source-line="51" id="ent0005"><rect fill="#FFFFFF" height="39.9688" rx="3" ry="3" style="stroke:#333333;stroke-width:1;" width="58.9922" x="288.3969" y="129.6294"/><ellipse cx="301.3969" cy="145.6137" fill="#FFFFFF" rx="9" ry="9" style="stroke:#000000;stroke-width:1;"/><path d="M303.8344,150.1137 L298.3813,150.1137 L298.3813,141.3637 L303.8344,141.3637 L303.8344,142.895 L300.1157,142.895 L300.1157,144.77 L303.475,144.77 L303.475,146.3012 L300.1157,146.3012 L300.1157,148.5825 L303.8344,148.5825 L303.8344,150.1137 Z " fill="#000000"/><text fill="#000000" font-family="'Segoe UI'" font-size="12" lengthAdjust="spacing" textLength="22.9922" x="317.3969" y="149.768">role</text><line style="stroke:#333333;stroke-width:1;" x1="289.3969" x2="346.3891" y1="161.5981" y2="161.5981"/></g><!--class menu_category--><g class="entity" data-qualified-name="Menu . Catalog.menu_category" data-source-line="55" id="ent0007"><rect fill="#FFFFFF" height="39.9688" rx="3" ry="3" style="stroke:#333333;stroke-width:1;" width="129.3164" x="611.6269" y="399.6294"/><ellipse cx="624.6269" cy="415.6138" fill="#FFFFFF" rx="9" ry="9" style="stroke:#000000;stroke-width:1;"/><path d="M627.0644,420.1138 L621.6113,420.1138 L621.6113,411.3638 L627.0644,411.3638 L627.0644,412.895 L623.3457,412.895 L623.3457,414.77 L626.705,414.77 L626.705,416.3013 L623.3457,416.3013 L623.3457,418.5825 L627.0644,418.5825 L627.0644,420.1138 Z " fill="#000000"/><text fill="#000000" font-family="'Segoe UI'" font-size="12" lengthAdjust="spacing" textLength="93.3164" x="640.6269" y="419.768">menu_category</text><line style="stroke:#333333;stroke-width:1;" x1="612.6269" x2="739.9433" y1="431.5981" y2="431.5981"/></g><!--class menu_item--><g class="entity" data-qualified-name="Menu . Catalog.menu_item" data-source-line="56" id="ent0008"><rect fill="#FFFFFF" height="39.9688" rx="3" ry="3" style="stroke:#333333;stroke-width:1;" width="103.3945" x="785.9469" y="362.6294"/><ellipse cx="798.9469" cy="378.6138" fill="#FFFFFF" rx="9" ry="9" style="stroke:#000000;stroke-width:1;"/><path d="M801.3844,383.1138 L795.9313,383.1138 L795.9313,374.3638 L801.3844,374.3638 L801.3844,375.895 L797.6657,375.895 L797.6657,377.77 L801.025,377.77 L801.025,379.3013 L797.6657,379.3013 L797.6657,381.5825 L801.3844,381.5825 L801.3844,383.1138 Z " fill="#000000"/><text fill="#000000" font-family="'Segoe UI'" font-size="12" lengthAdjust="spacing" textLength="67.3945" x="814.9469" y="382.768">menu_item</text><line style="stroke:#333333;stroke-width:1;" x1="786.9469" x2="888.3414" y1="394.5981" y2="394.5981"/></g><!--class topping--><g class="entity" data-qualified-name="Menu . Catalog.topping" data-source-line="57" id="ent0009"><rect fill="#FFFFFF" height="39.9688" rx="3" ry="3" style="stroke:#333333;stroke-width:1;" width="81.8379" x="635.3669" y="324.6294"/><ellipse cx="648.3669" cy="340.6138" fill="#FFFFFF" rx="9" ry="9" style="stroke:#000000;stroke-width:1;"/><path d="M650.8044,345.1138 L645.3513,345.1138 L645.3513,336.3638 L650.8044,336.3638 L650.8044,337.895 L647.0857,337.895 L647.0857,339.77 L650.445,339.77 L650.445,341.3013 L647.0857,341.3013 L647.0857,343.5825 L650.8044,343.5825 L650.8044,345.1138 Z " fill="#000000"/><text fill="#000000" font-family="'Segoe UI'" font-size="12" lengthAdjust="spacing" textLength="45.8379" x="664.3669" y="344.768">topping</text><line style="stroke:#333333;stroke-width:1;" x1="636.3669" x2="716.2048" y1="356.5981" y2="356.5981"/></g><!--class orders--><g class="entity" data-qualified-name="Ordering Core.orders" data-source-line="61" id="ent0011"><rect fill="#FFFFFF" height="39.9688" rx="3" ry="3" style="stroke:#333333;stroke-width:1;" width="74.4609" x="280.6569" y="324.6294"/><ellipse cx="293.6569" cy="340.6138" fill="#FFFFFF" rx="9" ry="9" style="stroke:#000000;stroke-width:1;"/><path d="M296.0944,345.1138 L290.6413,345.1138 L290.6413,336.3638 L296.0944,336.3638 L296.0944,337.895 L292.3757,337.895 L292.3757,339.77 L295.735,339.77 L295.735,341.3013 L292.3757,341.3013 L292.3757,343.5825 L296.0944,343.5825 L296.0944,345.1138 Z " fill="#000000"/><text fill="#000000" font-family="'Segoe UI'" font-size="12" lengthAdjust="spacing" textLength="38.4609" x="309.6569" y="344.768">orders</text><line style="stroke:#333333;stroke-width:1;" x1="281.6569" x2="354.1179" y1="356.5981" y2="356.5981"/></g><!--class order_item--><g class="entity" data-qualified-name="Ordering Core.order_item" data-source-line="62" id="ent0012"><rect fill="#FFFFFF" height="39.9688" rx="3" ry="3" style="stroke:#333333;stroke-width:1;" width="101.3203" x="434.3469" y="324.6294"/><ellipse cx="447.3469" cy="340.6138" fill="#FFFFFF" rx="9" ry="9" style="stroke:#000000;stroke-width:1;"/><path d="M449.7844,345.1138 L444.3313,345.1138 L444.3313,336.3638 L449.7844,336.3638 L449.7844,337.895 L446.0657,337.895 L446.0657,339.77 L449.425,339.77 L449.425,341.3013 L446.0657,341.3013 L446.0657,343.5825 L449.7844,343.5825 L449.7844,345.1138 Z " fill="#000000"/><text fill="#000000" font-family="'Segoe UI'" font-size="12" lengthAdjust="spacing" textLength="65.3203" x="463.3469" y="344.768">order_item</text><line style="stroke:#333333;stroke-width:1;" x1="435.3469" x2="534.6672" y1="356.5981" y2="356.5981"/></g><!--class dining_table--><g class="entity" data-qualified-name="Service Context.dining_table" data-source-line="66" id="ent0014"><rect fill="#FFFFFF" height="39.9688" rx="3" ry="3" style="stroke:#333333;stroke-width:1;" width="109.5059" x="96.8669" y="399.6294"/><ellipse cx="109.8669" cy="415.6138" fill="#FFFFFF" rx="9" ry="9" style="stroke:#000000;stroke-width:1;"/><path d="M112.3044,420.1138 L106.8513,420.1138 L106.8513,411.3638 L112.3044,411.3638 L112.3044,412.895 L108.5857,412.895 L108.5857,414.77 L111.945,414.77 L111.945,416.3013 L108.5857,416.3013 L108.5857,418.5825 L112.3044,418.5825 L112.3044,420.1138 Z " fill="#000000"/><text fill="#000000" font-family="'Segoe UI'" font-size="12" lengthAdjust="spacing" textLength="73.5059" x="125.8669" y="419.768">dining_table</text><line style="stroke:#333333;stroke-width:1;" x1="97.8669" x2="205.3728" y1="431.5981" y2="431.5981"/></g><!--class pickup_slot_config--><g class="entity" data-qualified-name="Service Context.pickup_slot_config" data-source-line="67" id="ent0015"><rect fill="#FFFFFF" height="39.9688" rx="3" ry="3" style="stroke:#333333;stroke-width:1;" width="146.0742" x="78.5869" y="324.6294"/><ellipse cx="91.5869" cy="340.6138" fill="#FFFFFF" rx="9" ry="9" style="stroke:#000000;stroke-width:1;"/><path d="M94.0244,345.1138 L88.5713,345.1138 L88.5713,336.3638 L94.0244,336.3638 L94.0244,337.895 L90.3057,337.895 L90.3057,339.77 L93.665,339.77 L93.665,341.3013 L90.3057,341.3013 L90.3057,343.5825 L94.0244,343.5825 L94.0244,345.1138 Z " fill="#000000"/><text fill="#000000" font-family="'Segoe UI'" font-size="12" lengthAdjust="spacing" textLength="110.0742" x="107.5869" y="344.768">pickup_slot_config</text><line style="stroke:#333333;stroke-width:1;" x1="79.5869" x2="223.6611" y1="356.5981" y2="356.5981"/></g><!--class promotion--><g class="entity" data-qualified-name="Promotion . Payment.promotion" data-source-line="71" id="ent0017"><rect fill="#FFFFFF" height="39.9688" rx="3" ry="3" style="stroke:#333333;stroke-width:1;" width="97.9102" x="436.0569" y="181.6294"/><ellipse cx="449.0569" cy="197.6137" fill="#FFFFFF" rx="9" ry="9" style="stroke:#000000;stroke-width:1;"/><path d="M451.4944,202.1137 L446.0413,202.1137 L446.0413,193.3637 L451.4944,193.3637 L451.4944,194.895 L447.7757,194.895 L447.7757,196.77 L451.135,196.77 L451.135,198.3012 L447.7757,198.3012 L447.7757,200.5825 L451.4944,200.5825 L451.4944,202.1137 Z " fill="#000000"/><text fill="#000000" font-family="'Segoe UI'" font-size="12" lengthAdjust="spacing" textLength="61.9102" x="465.0569" y="201.768">promotion</text><line style="stroke:#333333;stroke-width:1;" x1="437.0569" x2="532.9671" y1="213.5981" y2="213.5981"/></g><!--class payment_transaction--><g class="entity" data-qualified-name="Promotion . Payment.payment_transaction" data-source-line="72" id="ent0018"><rect fill="#FFFFFF" height="39.9688" rx="3" ry="3" style="stroke:#333333;stroke-width:1;" width="163.2422" x="403.3869" y="106.6294"/><ellipse cx="416.3869" cy="122.6137" fill="#FFFFFF" rx="9" ry="9" style="stroke:#000000;stroke-width:1;"/><path d="M418.8244,127.1137 L413.3713,127.1137 L413.3713,118.3637 L418.8244,118.3637 L418.8244,119.895 L415.1057,119.895 L415.1057,121.77 L418.465,121.77 L418.465,123.3012 L415.1057,123.3012 L415.1057,125.5825 L418.8244,125.5825 L418.8244,127.1137 Z " fill="#000000"/><text fill="#000000" font-family="'Segoe UI'" font-size="12" lengthAdjust="spacing" textLength="127.2422" x="432.3869" y="126.768">payment_transaction</text><line style="stroke:#333333;stroke-width:1;" x1="404.3869" x2="565.6291" y1="138.5981" y2="138.5981"/></g><!--class refund--><g class="entity" data-qualified-name="Promotion . Payment.refund" data-source-line="73" id="ent0019"><rect fill="#FFFFFF" height="39.9688" rx="3" ry="3" style="stroke:#333333;stroke-width:1;" width="75.3691" x="638.6069" y="106.6294"/><ellipse cx="651.6069" cy="122.6137" fill="#FFFFFF" rx="9" ry="9" style="stroke:#000000;stroke-width:1;"/><path d="M654.0444,127.1137 L648.5913,127.1137 L648.5913,118.3637 L654.0444,118.3637 L654.0444,119.895 L650.3257,119.895 L650.3257,121.77 L653.685,121.77 L653.685,123.3012 L650.3257,123.3012 L650.3257,125.5825 L654.0444,125.5825 L654.0444,127.1137 Z " fill="#000000"/><text fill="#000000" font-family="'Segoe UI'" font-size="12" lengthAdjust="spacing" textLength="39.3691" x="667.6069" y="126.768">refund</text><line style="stroke:#333333;stroke-width:1;" x1="639.6069" x2="712.9761" y1="138.5981" y2="138.5981"/></g><!--class order_review--><g class="entity" data-qualified-name="Experience . Operations.order_review" data-source-line="77" id="ent0021"><rect fill="#FFFFFF" height="39.9688" rx="3" ry="3" style="stroke:#333333;stroke-width:1;" width="114.1582" x="427.9269" y="669.6294"/><ellipse cx="440.9269" cy="685.6138" fill="#FFFFFF" rx="9" ry="9" style="stroke:#000000;stroke-width:1;"/><path d="M443.3644,690.1138 L437.9113,690.1138 L437.9113,681.3638 L443.3644,681.3638 L443.3644,682.895 L439.6457,682.895 L439.6457,684.77 L443.005,684.77 L443.005,686.3013 L439.6457,686.3013 L439.6457,688.5825 L443.3644,688.5825 L443.3644,690.1138 Z " fill="#000000"/><text fill="#000000" font-family="'Segoe UI'" font-size="12" lengthAdjust="spacing" textLength="78.1582" x="456.9269" y="689.768">order_review</text><line style="stroke:#333333;stroke-width:1;" x1="428.9269" x2="541.0851" y1="701.5981" y2="701.5981"/></g><!--class notification--><g class="entity" data-qualified-name="Experience . Operations.notification" data-source-line="78" id="ent0022"><rect fill="#FFFFFF" height="39.9688" rx="3" ry="3" style="stroke:#333333;stroke-width:1;" width="103.4824" x="433.2669" y="594.6294"/><ellipse cx="446.2669" cy="610.6138" fill="#FFFFFF" rx="9" ry="9" style="stroke:#000000;stroke-width:1;"/><path d="M448.7044,615.1138 L443.2513,615.1138 L443.2513,606.3638 L448.7044,606.3638 L448.7044,607.895 L444.9857,607.895 L444.9857,609.77 L448.345,609.77 L448.345,611.3013 L444.9857,611.3013 L444.9857,613.5825 L448.7044,613.5825 L448.7044,615.1138 Z " fill="#000000"/><text fill="#000000" font-family="'Segoe UI'" font-size="12" lengthAdjust="spacing" textLength="67.4824" x="462.2669" y="614.768">notification</text><line style="stroke:#333333;stroke-width:1;" x1="434.2669" x2="535.7493" y1="626.5981" y2="626.5981"/></g><!--class complaint--><g class="entity" data-qualified-name="Experience . Operations.complaint" data-source-line="79" id="ent0023"><rect fill="#FFFFFF" height="39.9688" rx="3" ry="3" style="stroke:#333333;stroke-width:1;" width="95.5781" x="437.2169" y="519.6294"/><ellipse cx="450.2169" cy="535.6138" fill="#FFFFFF" rx="9" ry="9" style="stroke:#000000;stroke-width:1;"/><path d="M452.6544,540.1138 L447.2013,540.1138 L447.2013,531.3638 L452.6544,531.3638 L452.6544,532.895 L448.9357,532.895 L448.9357,534.77 L452.295,534.77 L452.295,536.3013 L448.9357,536.3013 L448.9357,538.5825 L452.6544,538.5825 L452.6544,540.1138 Z " fill="#000000"/><text fill="#000000" font-family="'Segoe UI'" font-size="12" lengthAdjust="spacing" textLength="59.5781" x="466.2169" y="539.768">complaint</text><line style="stroke:#333333;stroke-width:1;" x1="438.2169" x2="531.795" y1="551.5981" y2="551.5981"/></g><!--class shift--><g class="entity" data-qualified-name="Experience . Operations.shift" data-source-line="80" id="ent0024"><rect fill="#FFFFFF" height="39.9688" rx="3" ry="3" style="stroke:#333333;stroke-width:1;" width="62.1211" x="453.9469" y="819.6294"/><ellipse cx="466.9469" cy="835.6138" fill="#FFFFFF" rx="9" ry="9" style="stroke:#000000;stroke-width:1;"/><path d="M469.3844,840.1138 L463.9313,840.1138 L463.9313,831.3638 L469.3844,831.3638 L469.3844,832.895 L465.6657,832.895 L465.6657,834.77 L469.025,834.77 L469.025,836.3013 L465.6657,836.3013 L465.6657,838.5825 L469.3844,838.5825 L469.3844,840.1138 Z " fill="#000000"/><text fill="#000000" font-family="'Segoe UI'" font-size="12" lengthAdjust="spacing" textLength="26.1211" x="482.9469" y="839.768">shift</text><line style="stroke:#333333;stroke-width:1;" x1="454.9469" x2="515.068" y1="851.5981" y2="851.5981"/></g><!--class stock_adjustment--><g class="entity" data-qualified-name="Experience . Operations.stock_adjustment" data-source-line="81" id="ent0025"><rect fill="#FFFFFF" height="39.9688" rx="3" ry="3" style="stroke:#333333;stroke-width:1;" width="142.0957" x="413.9569" y="744.6294"/><ellipse cx="426.9569" cy="760.6138" fill="#FFFFFF" rx="9" ry="9" style="stroke:#000000;stroke-width:1;"/><path d="M429.3944,765.1138 L423.9413,765.1138 L423.9413,756.3638 L429.3944,756.3638 L429.3944,757.895 L425.6757,757.895 L425.6757,759.77 L429.035,759.77 L429.035,761.3013 L425.6757,761.3013 L425.6757,763.5825 L429.3944,763.5825 L429.3944,765.1138 Z " fill="#000000"/><text fill="#000000" font-family="'Segoe UI'" font-size="12" lengthAdjust="spacing" textLength="106.0957" x="442.9569" y="764.768">stock_adjustment</text><line style="stroke:#333333;stroke-width:1;" x1="414.9569" x2="555.0526" y1="776.5981" y2="776.5981"/></g><!--class audit_log--><g class="entity" data-qualified-name="Experience . Operations.audit_log" data-source-line="82" id="ent0026"><rect fill="#FFFFFF" height="39.9688" rx="3" ry="3" style="stroke:#333333;stroke-width:1;" width="90.9082" x="630.8369" y="819.6294"/><ellipse cx="643.8369" cy="835.6138" fill="#FFFFFF" rx="9" ry="9" style="stroke:#000000;stroke-width:1;"/><path d="M646.2744,840.1138 L640.8213,840.1138 L640.8213,831.3638 L646.2744,831.3638 L646.2744,832.895 L642.5557,832.895 L642.5557,834.77 L645.915,834.77 L645.915,836.3013 L642.5557,836.3013 L642.5557,838.5825 L646.2744,838.5825 L646.2744,840.1138 Z " fill="#000000"/><text fill="#000000" font-family="'Segoe UI'" font-size="12" lengthAdjust="spacing" textLength="54.9082" x="659.8369" y="839.768">audit_log</text><line style="stroke:#333333;stroke-width:1;" x1="631.8369" x2="720.7451" y1="851.5981" y2="851.5981"/></g><!--link staff to role--><g class="link" data-entity-1="ent0004" data-entity-2="ent0005" data-link-type="crowfoot" data-source-line="89" id="lnk27"><path codeLine="89" d="M201.2869,149.6094 C231.4369,149.6094 240.4769,149.6094 270.0269,149.6094" fill="none" id="staff-role" style="stroke:#000000;stroke-width:1;"/><line style="stroke:#000000;stroke-width:1;" x1="191.2869" x2="183.2869" y1="149.6094" y2="155.6094"/><line style="stroke:#000000;stroke-width:1;" x1="191.2869" x2="183.2869" y1="149.6094" y2="143.6094"/><line style="stroke:#000000;stroke-width:1;" x1="191.2869" x2="183.2869" y1="149.6094" y2="149.6094"/><ellipse cx="197.2869" cy="149.6094" fill="none" rx="4" ry="4" style="stroke:#000000;stroke-width:1;"/><line style="stroke:#000000;stroke-width:1;" x1="280.0269" x2="288.0269" y1="149.6094" y2="143.6094"/><line style="stroke:#000000;stroke-width:1;" x1="280.0269" x2="288.0269" y1="149.6094" y2="155.6094"/><line style="stroke:#000000;stroke-width:1;" x1="280.0269" x2="288.0269" y1="149.6094" y2="149.6094"/><ellipse cx="274.0269" cy="149.6094" fill="none" rx="4" ry="4" style="stroke:#000000;stroke-width:1;"/></g><!--link menu_category to menu_item--><g class="link" data-entity-1="ent0007" data-entity-2="ent0008" data-link-type="crowfoot" data-source-line="91" id="lnk28"><path codeLine="91" d="M729.3369,391.3794 C729.3369,385.1694 729.3369,387.9494 729.3369,387.9494 C729.3369,387.9494 739.9169,387.9494 767.7169,387.9494" fill="none" id="menu_category-menu_item" style="stroke:#000000;stroke-width:1;"/><line style="stroke:#000000;stroke-width:1;" x1="733.3369" x2="725.3369" y1="395.3794" y2="395.3794"/><line style="stroke:#000000;stroke-width:1;" x1="733.3369" x2="725.3369" y1="392.3794" y2="392.3794"/><line style="stroke:#000000;stroke-width:1;" x1="729.3369" x2="729.3369" y1="391.3794" y2="399.3794"/><line style="stroke:#000000;stroke-width:1;" x1="777.7169" x2="785.7169" y1="387.9494" y2="381.9494"/><line style="stroke:#000000;stroke-width:1;" x1="777.7169" x2="785.7169" y1="387.9494" y2="393.9494"/><line style="stroke:#000000;stroke-width:1;" x1="777.7169" x2="785.7169" y1="387.9494" y2="387.9494"/><ellipse cx="771.7169" cy="387.9494" fill="none" rx="4" ry="4" style="stroke:#000000;stroke-width:1;"/></g><!--link customer to orders--><g class="link" data-entity-1="ent0003" data-entity-2="ent0011" data-link-type="crowfoot" data-source-line="93" id="lnk29"><path codeLine="93" d="M213.0169,233.0894 C251.6369,233.0894 285.3369,233.0894 285.3369,233.0894 C285.3369,233.0894 285.3369,273.9594 285.3369,306.1594" fill="none" id="customer-orders" style="stroke:#000000;stroke-width:1;"/><line style="stroke:#000000;stroke-width:1;" x1="209.0169" x2="198.0169" y1="233.0894" y2="233.0894"/><ellipse cx="209.0169" cy="233.0894" fill="none" rx="4" ry="4" style="stroke:#000000;stroke-width:1;"/><line style="stroke:#000000;stroke-width:1;" x1="202.0169" x2="202.0169" y1="237.0894" y2="229.0894"/><line style="stroke:#000000;stroke-width:1;" x1="285.3369" x2="291.3369" y1="316.1594" y2="324.1594"/><line style="stroke:#000000;stroke-width:1;" x1="285.3369" x2="279.3369" y1="316.1594" y2="324.1594"/><line style="stroke:#000000;stroke-width:1;" x1="285.3369" x2="285.3369" y1="316.1594" y2="324.1594"/><ellipse cx="285.3369" cy="310.1594" fill="none" rx="4" ry="4" style="stroke:#000000;stroke-width:1;"/></g><!--link orders to order_item--><g class="link" data-entity-1="ent0011" data-entity-2="ent0012" data-link-type="crowfoot" data-source-line="94" id="lnk30"><path codeLine="94" d="M363.3969,344.6094 C386.5869,344.6094 400.6669,344.6094 426.0069,344.6094" fill="none" id="orders-order_item" style="stroke:#000000;stroke-width:1;"/><line style="stroke:#000000;stroke-width:1;" x1="359.3969" x2="359.3969" y1="348.6094" y2="340.6094"/><line style="stroke:#000000;stroke-width:1;" x1="362.3969" x2="362.3969" y1="348.6094" y2="340.6094"/><line style="stroke:#000000;stroke-width:1;" x1="363.3969" x2="355.3969" y1="344.6094" y2="344.6094"/><line style="stroke:#000000;stroke-width:1;" x1="426.0069" x2="434.0069" y1="344.6094" y2="338.6094"/><line style="stroke:#000000;stroke-width:1;" x1="426.0069" x2="434.0069" y1="344.6094" y2="350.6094"/><line style="stroke:#000000;stroke-width:1;" x1="426.0069" x2="434.0069" y1="344.6094" y2="344.6094"/><line style="stroke:#000000;stroke-width:1;" x1="424.0069" x2="424.0069" y1="340.6094" y2="348.6094"/></g><!--link menu_item to order_item--><g class="link" data-entity-1="ent0008" data-entity-2="ent0012" data-link-type="crowfoot" data-source-line="95" id="lnk31"><path codeLine="95" d="M777.6569,376.2694 C679.6569,376.2694 485.3369,376.2694 485.3369,376.2694 C485.3369,376.2694 485.3369,389.0494 485.3369,382.8394" fill="none" id="menu_item-order_item" style="stroke:#000000;stroke-width:1;"/><line style="stroke:#000000;stroke-width:1;" x1="781.6569" x2="781.6569" y1="372.2694" y2="380.2694"/><line style="stroke:#000000;stroke-width:1;" x1="778.6569" x2="778.6569" y1="372.2694" y2="380.2694"/><line style="stroke:#000000;stroke-width:1;" x1="777.6569" x2="785.6569" y1="376.2694" y2="376.2694"/><line style="stroke:#000000;stroke-width:1;" x1="485.3369" x2="479.3369" y1="372.8394" y2="364.8394"/><line style="stroke:#000000;stroke-width:1;" x1="485.3369" x2="491.3369" y1="372.8394" y2="364.8394"/><line style="stroke:#000000;stroke-width:1;" x1="485.3369" x2="485.3369" y1="372.8394" y2="364.8394"/><ellipse cx="485.3369" cy="378.8394" fill="none" rx="4" ry="4" style="stroke:#000000;stroke-width:1;"/></g><!--link order_item to topping--><g class="link" data-entity-1="ent0012" data-entity-2="ent0009" data-link-type="crowfoot" data-source-line="96" id="lnk32"><path codeLine="96" d="M554.0169,344.6094 C585.0069,344.6094 588.0469,344.6094 617.0769,344.6094" fill="none" id="order_item-topping" style="stroke:#000000;stroke-width:1;"/><line style="stroke:#000000;stroke-width:1;" x1="544.0169" x2="536.0169" y1="344.6094" y2="350.6094"/><line style="stroke:#000000;stroke-width:1;" x1="544.0169" x2="536.0169" y1="344.6094" y2="338.6094"/><line style="stroke:#000000;stroke-width:1;" x1="544.0169" x2="536.0169" y1="344.6094" y2="344.6094"/><ellipse cx="550.0169" cy="344.6094" fill="none" rx="4" ry="4" style="stroke:#000000;stroke-width:1;"/><line style="stroke:#000000;stroke-width:1;" x1="627.0769" x2="635.0769" y1="344.6094" y2="338.6094"/><line style="stroke:#000000;stroke-width:1;" x1="627.0769" x2="635.0769" y1="344.6094" y2="350.6094"/><line style="stroke:#000000;stroke-width:1;" x1="627.0769" x2="635.0769" y1="344.6094" y2="344.6094"/><ellipse cx="621.0769" cy="344.6094" fill="none" rx="4" ry="4" style="stroke:#000000;stroke-width:1;"/></g><!--link dining_table to orders--><g class="link" data-entity-1="ent0014" data-entity-2="ent0011" data-link-type="crowfoot" data-source-line="98" id="lnk33"><path codeLine="98" d="M221.7469,419.6094 C262.6469,419.6094 296.3369,419.6094 296.3369,419.6094 C296.3369,419.6094 296.3369,404.9194 296.3369,382.7094" fill="none" id="dining_table-orders" style="stroke:#000000;stroke-width:1;"/><line style="stroke:#000000;stroke-width:1;" x1="217.7469" x2="206.7469" y1="419.6094" y2="419.6094"/><ellipse cx="217.7469" cy="419.6094" fill="none" rx="4" ry="4" style="stroke:#000000;stroke-width:1;"/><line style="stroke:#000000;stroke-width:1;" x1="210.7469" x2="210.7469" y1="423.6094" y2="415.6094"/><line style="stroke:#000000;stroke-width:1;" x1="296.3369" x2="290.3369" y1="372.7094" y2="364.7094"/><line style="stroke:#000000;stroke-width:1;" x1="296.3369" x2="302.3369" y1="372.7094" y2="364.7094"/><line style="stroke:#000000;stroke-width:1;" x1="296.3369" x2="296.3369" y1="372.7094" y2="364.7094"/><ellipse cx="296.3369" cy="378.7094" fill="none" rx="4" ry="4" style="stroke:#000000;stroke-width:1;"/></g><!--link pickup_slot_config to orders--><g class="link" data-entity-1="ent0015" data-entity-2="ent0011" data-link-type="crowfoot" data-source-line="99" id="lnk34"><path codeLine="99" d="M240.0369,344.6094 C259.1769,344.6094 246.0069,344.6094 262.4069,344.6094" fill="none" id="pickup_slot_config-orders" style="stroke:#000000;stroke-width:1;"/><line style="stroke:#000000;stroke-width:1;" x1="236.0369" x2="225.0369" y1="344.6094" y2="344.6094"/><ellipse cx="236.0369" cy="344.6094" fill="none" rx="4" ry="4" style="stroke:#000000;stroke-width:1;"/><line style="stroke:#000000;stroke-width:1;" x1="229.0369" x2="229.0369" y1="348.6094" y2="340.6094"/><line style="stroke:#000000;stroke-width:1;" x1="272.4069" x2="280.4069" y1="344.6094" y2="338.6094"/><line style="stroke:#000000;stroke-width:1;" x1="272.4069" x2="280.4069" y1="344.6094" y2="350.6094"/><line style="stroke:#000000;stroke-width:1;" x1="272.4069" x2="280.4069" y1="344.6094" y2="344.6094"/><ellipse cx="266.4069" cy="344.6094" fill="none" rx="4" ry="4" style="stroke:#000000;stroke-width:1;"/></g><!--link promotion to orders--><g class="link" data-entity-1="ent0017" data-entity-2="ent0011" data-link-type="crowfoot" data-source-line="101" id="lnk35"><path codeLine="101" d="M420.6069,213.1094 C383.2469,213.1094 353.3369,213.1094 353.3369,213.1094 C353.3369,213.1094 353.3369,269.4594 353.3369,306.3494" fill="none" id="promotion-orders" style="stroke:#000000;stroke-width:1;"/><line style="stroke:#000000;stroke-width:1;" x1="424.6069" x2="435.6069" y1="213.1094" y2="213.1094"/><ellipse cx="424.6069" cy="213.1094" fill="none" rx="4" ry="4" style="stroke:#000000;stroke-width:1;"/><line style="stroke:#000000;stroke-width:1;" x1="431.6069" x2="431.6069" y1="209.1094" y2="217.1094"/><line style="stroke:#000000;stroke-width:1;" x1="353.3369" x2="359.3369" y1="316.3494" y2="324.3494"/><line style="stroke:#000000;stroke-width:1;" x1="353.3369" x2="347.3369" y1="316.3494" y2="324.3494"/><line style="stroke:#000000;stroke-width:1;" x1="353.3369" x2="353.3369" y1="316.3494" y2="324.3494"/><ellipse cx="353.3369" cy="310.3494" fill="none" rx="4" ry="4" style="stroke:#000000;stroke-width:1;"/></g><!--link orders to payment_transaction--><g class="link" data-entity-1="ent0011" data-entity-2="ent0018" data-link-type="crowfoot" data-source-line="102" id="lnk36"><path codeLine="102" d="M350.3369,316.4294 C350.3369,264.4694 350.3369,138.1094 350.3369,138.1094 C350.3369,138.1094 356.9769,138.1094 385.1769,138.1094" fill="none" id="orders-payment_transaction" style="stroke:#000000;stroke-width:1;"/><line style="stroke:#000000;stroke-width:1;" x1="354.3369" x2="346.3369" y1="320.4294" y2="320.4294"/><line style="stroke:#000000;stroke-width:1;" x1="354.3369" x2="346.3369" y1="317.4294" y2="317.4294"/><line style="stroke:#000000;stroke-width:1;" x1="350.3369" x2="350.3369" y1="316.4294" y2="324.4294"/><line style="stroke:#000000;stroke-width:1;" x1="395.1769" x2="403.1769" y1="138.1094" y2="132.1094"/><line style="stroke:#000000;stroke-width:1;" x1="395.1769" x2="403.1769" y1="138.1094" y2="144.1094"/><line style="stroke:#000000;stroke-width:1;" x1="395.1769" x2="403.1769" y1="138.1094" y2="138.1094"/><ellipse cx="389.1769" cy="138.1094" fill="none" rx="4" ry="4" style="stroke:#000000;stroke-width:1;"/></g><!--link payment_transaction to refund--><g class="link" data-entity-1="ent0018" data-entity-2="ent0019" data-link-type="crowfoot" data-source-line="103" id="lnk37"><path codeLine="103" d="M581.9569,126.6094 C606.7069,126.6094 599.6869,126.6094 620.1169,126.6094" fill="none" id="payment_transaction-refund" style="stroke:#000000;stroke-width:1;"/><line style="stroke:#000000;stroke-width:1;" x1="577.9569" x2="566.9569" y1="126.6094" y2="126.6094"/><ellipse cx="577.9569" cy="126.6094" fill="none" rx="4" ry="4" style="stroke:#000000;stroke-width:1;"/><line style="stroke:#000000;stroke-width:1;" x1="570.9569" x2="570.9569" y1="130.6094" y2="122.6094"/><line style="stroke:#000000;stroke-width:1;" x1="630.1169" x2="638.1169" y1="126.6094" y2="120.6094"/><line style="stroke:#000000;stroke-width:1;" x1="630.1169" x2="638.1169" y1="126.6094" y2="132.6094"/><line style="stroke:#000000;stroke-width:1;" x1="630.1169" x2="638.1169" y1="126.6094" y2="126.6094"/><ellipse cx="624.1169" cy="126.6094" fill="none" rx="4" ry="4" style="stroke:#000000;stroke-width:1;"/></g><!--link orders to order_review--><g class="link" data-entity-1="ent0011" data-entity-2="ent0021" data-link-type="association" data-source-line="105" id="lnk38"><path codeLine="105" d="M311.3369,372.8994 C311.3369,446.8594 311.3369,689.6094 311.3369,689.6094 C311.3369,689.6094 362.0769,689.6094 412.6669,689.6094" fill="none" id="orders-order_review" style="stroke:#000000;stroke-width:1;"/><line style="stroke:#000000;stroke-width:1;" x1="307.3369" x2="315.3369" y1="368.8994" y2="368.8994"/><line style="stroke:#000000;stroke-width:1;" x1="307.3369" x2="315.3369" y1="371.8994" y2="371.8994"/><line style="stroke:#000000;stroke-width:1;" x1="311.3369" x2="311.3369" y1="372.8994" y2="364.8994"/><line style="stroke:#000000;stroke-width:1;" x1="416.6669" x2="427.6669" y1="689.6094" y2="689.6094"/><ellipse cx="416.6669" cy="689.6094" fill="none" rx="4" ry="4" style="stroke:#000000;stroke-width:1;"/><line style="stroke:#000000;stroke-width:1;" x1="423.6669" x2="423.6669" y1="685.6094" y2="693.6094"/></g><!--link orders to notification--><g class="link" data-entity-1="ent0011" data-entity-2="ent0022" data-link-type="crowfoot" data-source-line="106" id="lnk39"><path codeLine="106" d="M325.3369,372.8994 C325.3369,435.6994 325.3369,614.6094 325.3369,614.6094 C325.3369,614.6094 368.5469,614.6094 415.1669,614.6094" fill="none" id="orders-notification" style="stroke:#000000;stroke-width:1;"/><line style="stroke:#000000;stroke-width:1;" x1="321.3369" x2="329.3369" y1="368.8994" y2="368.8994"/><line style="stroke:#000000;stroke-width:1;" x1="321.3369" x2="329.3369" y1="371.8994" y2="371.8994"/><line style="stroke:#000000;stroke-width:1;" x1="325.3369" x2="325.3369" y1="372.8994" y2="364.8994"/><line style="stroke:#000000;stroke-width:1;" x1="425.1669" x2="433.1669" y1="614.6094" y2="608.6094"/><line style="stroke:#000000;stroke-width:1;" x1="425.1669" x2="433.1669" y1="614.6094" y2="620.6094"/><line style="stroke:#000000;stroke-width:1;" x1="425.1669" x2="433.1669" y1="614.6094" y2="614.6094"/><ellipse cx="419.1669" cy="614.6094" fill="none" rx="4" ry="4" style="stroke:#000000;stroke-width:1;"/></g><!--link orders to complaint--><g class="link" data-entity-1="ent0011" data-entity-2="ent0023" data-link-type="crowfoot" data-source-line="108" id="lnk40"><path codeLine="108" d="M340.3369,372.7394 C340.3369,422.5694 340.3369,539.6094 340.3369,539.6094 C340.3369,539.6094 376.7569,539.6094 418.8369,539.6094" fill="none" id="orders-complaint" style="stroke:#000000;stroke-width:1;"/><line style="stroke:#000000;stroke-width:1;" x1="336.3369" x2="344.3369" y1="368.7394" y2="368.7394"/><line style="stroke:#000000;stroke-width:1;" x1="336.3369" x2="344.3369" y1="371.7394" y2="371.7394"/><line style="stroke:#000000;stroke-width:1;" x1="340.3369" x2="340.3369" y1="372.7394" y2="364.7394"/><line style="stroke:#000000;stroke-width:1;" x1="428.8369" x2="436.8369" y1="539.6094" y2="533.6094"/><line style="stroke:#000000;stroke-width:1;" x1="428.8369" x2="436.8369" y1="539.6094" y2="545.6094"/><line style="stroke:#000000;stroke-width:1;" x1="428.8369" x2="436.8369" y1="539.6094" y2="539.6094"/><ellipse cx="422.8369" cy="539.6094" fill="none" rx="4" ry="4" style="stroke:#000000;stroke-width:1;"/></g><g class="legend" data-source-line="110"><rect fill="none" height="264.9688" rx="3" ry="3" style="stroke:#000000;stroke-width:1;" width="947.9238" x="10" y="888.6094"/><text fill="#000000" font-family="'Segoe UI'" font-size="14" font-weight="700" lengthAdjust="spacing" textLength="93.6865" x="27.874" y="916.6045">Folded area</text><text fill="#000000" font-family="'Segoe UI'" font-size="14" font-weight="700" lengthAdjust="spacing" textLength="365.3057" x="160.3564" y="916.6045">Tables intentionally hidden from the overview</text><text fill="#000000" font-family="'Segoe UI'" font-size="14" lengthAdjust="spacing" textLength="32.8125" x="27.4502" y="940.9014">Auth</text><text fill="#000000" font-family="'Segoe UI'" font-size="14" lengthAdjust="spacing" textLength="182.4033" x="159.9326" y="940.9014">customer_password_reset</text><text fill="#000000" font-family="'Segoe UI'" font-size="14" lengthAdjust="spacing" textLength="111.125" x="27.4502" y="965.1982">Staff / audit FKs</text><text fill="#000000" font-family="'Segoe UI'" font-size="14" lengthAdjust="spacing" textLength="461.6309" x="159.9326" y="965.1982">staff_role, created_by_staff_id, actor_staff_id, audit approver links</text><text fill="#000000" font-family="'Segoe UI'" font-size="14" lengthAdjust="spacing" textLength="82.2363" x="27.4502" y="989.4951">Menu detail</text><text fill="#000000" font-family="'Segoe UI'" font-size="14" lengthAdjust="spacing" textLength="356.6377" x="159.9326" y="989.4951">menu_item_topping, menu_item_availability_event</text><text fill="#000000" font-family="'Segoe UI'" font-size="14" lengthAdjust="spacing" textLength="83.8291" x="27.4502" y="1013.792">Order detail</text><text fill="#000000" font-family="'Segoe UI'" font-size="14" lengthAdjust="spacing" textLength="523.7695" x="159.9326" y="1013.792">order_item_topping, order_status_history, source_order_id reorder self-link</text><text fill="#000000" font-family="'Segoe UI'" font-size="14" lengthAdjust="spacing" textLength="115.582" x="27.4502" y="1038.0889">Promotion detail</text><text fill="#000000" font-family="'Segoe UI'" font-size="14" lengthAdjust="spacing" textLength="121.4746" x="159.9326" y="1038.0889">promotion_usage</text><text fill="#000000" font-family="'Segoe UI'" font-size="14" lengthAdjust="spacing" textLength="75.8652" x="27.4502" y="1062.3857">Shift detail</text><text fill="#000000" font-family="'Segoe UI'" font-size="14" lengthAdjust="spacing" textLength="780.541" x="159.9326" y="1062.3857">shift_reconciliation_bucket, shift_inherited_exception, cash_drawer_movement; attribution by event timestamp</text><text fill="#000000" font-family="'Segoe UI'" font-size="14" lengthAdjust="spacing" textLength="110.667" x="27.4502" y="1086.6826">Inventory detail</text><text fill="#000000" font-family="'Segoe UI'" font-size="14" lengthAdjust="spacing" textLength="390.5371" x="159.9326" y="1086.6826">stock_adjustment references menu_item in the full ERD</text><text fill="#000000" font-family="'Segoe UI'" font-size="14" lengthAdjust="spacing" textLength="80.5137" x="27.4502" y="1110.9795">Audit detail</text><text fill="#000000" font-family="'Segoe UI'" font-size="14" lengthAdjust="spacing" textLength="577.2744" x="159.9326" y="1110.9795">audit_log uses generic entity_type/entity_id; noisy links to every table are omitted</text><text fill="#000000" font-family="'Segoe UI'" font-size="14" lengthAdjust="spacing" textLength="87.3223" x="27.4502" y="1135.2764">Source truth</text><text fill="#000000" font-family="'Segoe UI'" font-size="14" lengthAdjust="spacing" textLength="659.9893" x="159.9326" y="1135.2764">Use WontonPOS_FinalV3_ERD.puml and WontonPOS_FinalV3_Schema.sql for field-level design</text><line style="stroke:#000000;stroke-width:1;" x1="19" x2="948.9238" y1="899.6094" y2="899.6094"/><line style="stroke:#000000;stroke-width:1;" x1="19" x2="948.9238" y1="923.9063" y2="923.9063"/><line style="stroke:#000000;stroke-width:1;" x1="19" x2="948.9238" y1="948.2031" y2="948.2031"/><line style="stroke:#000000;stroke-width:1;" x1="19" x2="948.9238" y1="972.5" y2="972.5"/><line style="stroke:#000000;stroke-width:1;" x1="19" x2="948.9238" y1="996.7969" y2="996.7969"/><line style="stroke:#000000;stroke-width:1;" x1="19" x2="948.9238" y1="1021.0938" y2="1021.0938"/><line style="stroke:#000000;stroke-width:1;" x1="19" x2="948.9238" y1="1045.3906" y2="1045.3906"/><line style="stroke:#000000;stroke-width:1;" x1="19" x2="948.9238" y1="1069.6875" y2="1069.6875"/><line style="stroke:#000000;stroke-width:1;" x1="19" x2="948.9238" y1="1093.9844" y2="1093.9844"/><line style="stroke:#000000;stroke-width:1;" x1="19" x2="948.9238" y1="1118.2813" y2="1118.2813"/><line style="stroke:#000000;stroke-width:1;" x1="19" x2="948.9238" y1="1142.5781" y2="1142.5781"/><line style="stroke:#000000;stroke-width:1;" x1="19" x2="19" y1="899.6094" y2="1142.5781"/><line style="stroke:#000000;stroke-width:1;" x1="151.4824" x2="151.4824" y1="899.6094" y2="1142.5781"/><line style="stroke:#000000;stroke-width:1;" x1="948.9238" x2="948.9238" y1="899.6094" y2="1142.5781"/></g><?plantuml-src hLTDSzis4BtZLspTcQQTyKSRvsEccHmI9vvwajHkbQH73WGk9KGWm0AWRTNoV-y3o52ax1mwDIyY5uktkzYtYzKZUlaGZtX4VpaRdQMBynaTqAcsqj3hFz_GvJ6znS_v9VjBpLVqu-DdzEda9snuACCNhMzSu5_nUa0dXgMbndDW6sNKpXvvpeQJ5vNp59SyTK-sSUcyjWioql9XXdd7tFGH8Q0Ywty-Be1nsBIr8MdBUvPdQicrF0n_Go40XxAnagFKXakgD9lomF0b6mgkzQetzd6f0xcl1wHjXEjmN1gpXiUc3FIbjIg9zWcgqVdrVlR0DUnbfvgj6RUWAEU6Gq9nP5t4AruybwrYCjeoAUz2GBJXyC5o8Bv3d3LJOwIs8kfe-B_IGHYkOdPLBvQHIkqvHooMkcIg6IagG_SH8djsSTrm466bRIEzh2aiPUckKXOhQGAFLbBKIPkS1yfeeP5g9HSyYsluc-n9kp3ZdSh845x5wFMyZNocd9tfVvX-7gcKNCdMn5D4-xl44UpDUE6OFftjtQ-K0NvvFF6YB9FRJqOoxrfRAkSjUtesabjNWjWD7JyTAqkxIi8dJyMkxtGZY5uZp4L6F7461V3zQNxIYlCb-rvwd1z8VsC9wRTstOg9Fv6_QUFDs-UxDfxd9s4ONZ0O75r3AVDYyv8-9pxu5hd0nmUKSJgLZTZGYVDCgIRYcZOqMxehY_eYINDtdHLcRTCWkHtteNAAea6zZMeWQRrIg9mZsPOwqkaxoEYyrZ52iRKecG1Y-LR5rkV2qtM2b3RclMycDPpslkCcmaAkyAer9jCw5UNiZ_SKSYF0JiJOHIf4ppRQks3NmCqVu922sRryW7rugaLvryZwpUrM6AAiged4Em10S3k2_S2s1UY9Z19zO89QOwbGCeAQVZq1oYiwSZsH8YjDElmT2-SfaqcU4Z8na7CS9XXPD42FOMQfzD6DJb0EV1qdGAW462YwH8xX6grMRLC4usA1Egpq7UyklAjTQXauX0kvHcHJw6POd-1scaL45GMfxgnxha3gNLjlhz5vDLkLqdZ-jGk7ksTIz9VF61ACr9LMyeujvUhSGUCq-qjTxKYYKwj2bbz0bkJyP37pkqWtGUSpBfY7U82Jot1R8pWQquMzr0tkBslM3sPCT9I_TGS7xYQpNOWfYJURl3JmLuYXT3RThewJegTcqj_SZ5WfjjJliKPh8_BsFlGb8SI4eLDJzt1qgY2s7Focan3Umqbn7qzxZ8wYOWAocT1l1tzCGB6pDd1mQD5p5t6kGvVkUwlqB5EV_ZYC6wEX1TTqoPOgH9lxup3Rv3QCSGlzyskwYWRtr1MSADBCrdNRMSx-4OrxTMP4aQYmZn66mOEocA-BJgnB34IflO-_ysRPuCnXFaq1g-uUo8so6yg0Ez2Ww5EyFnB9IoZ9kJQeh09pMtyRv4QuXTYoPOlHoU1DR4Cn36tTr5Vq6qgaBhzIO5CT90yp_BQJ3IO6uXHjI1qedr9k38DAxXCuH31FmU6StMBUgXN7_NvHsoNQLZevlbQul_94gMHO5gMNLt2fnb4bchqWsKyzoOlvchhOewuP8TLDjdzcap0LuzQ7tSu4Rc9OGvyCewjczzRiM96oDG1jkrWRi1T4XEEgxt55ckQE-dTTlW2XTLZt6SQL3sVXL5UXu2cv_fhFXvOpGEXYcOMV0l-lCJ_zeHYFzHZFzCAEB_v_0G00?></g></svg>